<svg width="18" height="18" viewBox="0 0 18 18" fill="none" xmlns="http://www.w3.org/2000/svg">
<path d="M9 0.0670776C13.9336 0.0670776 17.9334 4.0661 17.9336 8.99969C17.9336 13.9334 13.9337 17.9333 9 17.9333C4.06641 17.9331 0.0673828 13.9333 0.0673828 8.99969C0.067559 4.06621 4.06651 0.0672538 9 0.0670776ZM1.29199 9.60028C1.56341 13.1349 4.20951 16.0017 7.63867 16.611C6.14511 14.5678 5.25762 12.1376 5.09277 9.60028H1.29199ZM12.9082 9.60028C12.7433 12.1379 11.8543 14.5677 10.3604 16.611C13.7903 16.0023 16.4365 13.1354 16.708 9.60028H12.9082ZM6.29688 9.60028C6.47511 12.0956 7.41958 14.4739 9 16.4118C10.5806 14.4739 11.5259 12.0958 11.7041 9.60028H6.29688ZM10.3604 1.38837C11.8545 3.43191 12.7434 5.86216 12.9082 8.40009H16.708C16.4367 4.86476 13.7904 1.99711 10.3604 1.38837ZM9 1.58759C7.41932 3.52561 6.47506 5.90446 6.29688 8.40009H11.7041C11.5259 5.90431 10.5808 3.52567 9 1.58759ZM7.63965 1.38837C4.20987 1.99735 1.56331 4.86495 1.29199 8.40009H5.09277C5.25759 5.8623 6.14563 3.43184 7.63965 1.38837Z" fill="#E5E7EB"/>
</svg>
