<svg width="18" height="18" viewBox="0 0 18 18" fill="none" xmlns="http://www.w3.org/2000/svg">
<path d="M15.833 8.5166C15.833 6.63371 15.8316 5.28156 15.6934 4.25293C15.5574 3.2418 15.299 2.63319 14.8496 2.1836C14.4 1.73397 13.7907 1.47484 12.7793 1.33887C11.7508 1.20064 10.3991 1.19922 8.5166 1.19922C6.63373 1.19922 5.28155 1.20059 4.25293 1.33887C3.24156 1.47484 2.63322 1.73397 2.1836 2.1836C1.73397 2.63322 1.47484 3.24156 1.33887 4.25293C1.20059 5.28155 1.19922 6.63373 1.19922 8.5166C1.19922 10.3991 1.20064 11.7508 1.33887 12.7793C1.47484 13.7907 1.73397 14.4 2.1836 14.8496C2.63319 15.299 3.2418 15.5574 4.25293 15.6934C5.28156 15.8316 6.63371 15.833 8.5166 15.833C10.3991 15.833 11.7508 15.8316 12.7793 15.6934C13.7907 15.5574 14.4 15.2992 14.8496 14.8496C15.2992 14.4 15.5574 13.7907 15.6934 12.7793C15.8316 11.7508 15.833 10.3991 15.833 8.5166ZM17.0332 8.5166C17.0332 10.3654 17.0343 11.8124 16.8828 12.9395C16.7289 14.0839 16.408 14.9885 15.6982 15.6982C14.9885 16.408 14.0839 16.7289 12.9395 16.8828C11.8124 17.0343 10.3654 17.0332 8.5166 17.0332C6.66759 17.0332 5.21996 17.0344 4.09277 16.8828C2.94859 16.729 2.04463 16.4077 1.33496 15.6982C0.625217 14.9885 0.303282 14.0839 0.149416 12.9395C-0.0020943 11.8124 1.44672e-06 10.3654 1.59591e-06 8.5166C1.59591e-06 6.66759 -0.00213003 5.21996 0.149416 4.09277C0.303288 2.94839 0.625242 2.04468 1.33496 1.33496C2.04468 0.625242 2.94839 0.303288 4.09277 0.149416C5.21996 -0.00213003 6.66759 1.59591e-06 8.5166 1.59591e-06C10.3654 1.44672e-06 11.8124 -0.0020943 12.9395 0.149416C14.0839 0.303282 14.9885 0.625217 15.6982 1.33496C16.4077 2.04463 16.729 2.94859 16.8828 4.09277C17.0344 5.21996 17.0332 6.66759 17.0332 8.5166Z" fill="#E5E7EB"/>
<path d="M7.91602 9.7666V9.34961C7.91602 8.6918 8.23953 8.14666 8.5459 7.72559C8.7012 7.51214 8.87439 7.30219 9.02246 7.11817C9.17678 6.92638 9.30836 6.75608 9.41406 6.5918L9.48535 6.46192C9.54769 6.32673 9.58296 6.17633 9.58301 6.0166C9.58301 5.42761 9.10556 4.9494 8.5166 4.94922C7.9275 4.94922 7.44922 5.4275 7.44922 6.0166C7.44904 6.34782 7.18087 6.61621 6.84961 6.61621C6.51835 6.61621 6.25018 6.34782 6.25 6.0166C6.25 4.76476 7.26476 3.75 8.5166 3.75C9.7683 3.75018 10.7832 4.76487 10.7832 6.0166C10.7831 6.41045 10.6815 6.78189 10.5039 7.10547L10.4238 7.24121C10.2805 7.46391 10.1123 7.6771 9.95703 7.87012C9.79542 8.07097 9.64871 8.24874 9.51563 8.43164C9.24539 8.80311 9.11621 9.08704 9.11621 9.34961V9.7666C9.11604 10.0977 8.84772 10.366 8.5166 10.3662C8.18534 10.3662 7.91619 10.0978 7.91602 9.7666Z" fill="#E5E7EB"/>
<path d="M8.51758 12.0833L8.6377 12.0951C8.91127 12.1509 9.11719 12.3929 9.11719 12.6829C9.11719 12.973 8.91127 13.215 8.6377 13.2708L8.51758 13.2826H8.50977C8.1784 13.2826 7.90918 13.0143 7.90918 12.6829C7.90918 12.3516 8.1784 12.0833 8.50977 12.0833H8.51758Z" fill="#E5E7EB"/>
</svg>
