<svg width="192" height="192" viewBox="0 0 192 192" fill="none" xmlns="http://www.w3.org/2000/svg">
<circle cx="96" cy="96" r="96" fill="black"/>
<path d="M141.692 129.161L119.112 106.246L116.702 103.793H124.177C129.434 103.987 134.499 101.765 137.973 97.7535C141.556 93.7975 143.502 88.6059 143.429 83.2391C143.511 77.9276 141.556 72.8005 137.973 68.9276C134.426 64.9532 129.315 62.7862 124.041 63.0167H88.7656V75.5116H121.404C123.641 75.4471 125.796 76.4061 127.269 78.1213C130.216 81.6069 130.188 86.7616 127.206 90.2104C125.705 91.944 123.523 92.9123 121.249 92.8754H89.7114L122.613 129.161H141.692Z" fill="white"/>
<path d="M64.1125 108.163C66.9225 108.062 69.6507 109.113 71.6786 111.086C75.6435 115.346 75.6435 122.013 71.6786 126.274C69.6416 128.229 66.9134 129.28 64.1125 129.178H59.5655C56.7646 129.271 54.0455 128.229 52.0085 126.283C49.9987 124.31 48.9074 121.562 49.0075 118.731C48.8983 115.872 49.9896 113.106 51.9994 111.105C54.0273 109.131 56.7464 108.071 59.5564 108.163H64.1034H64.1125ZM59.5655 113.198C57.8558 113.124 56.1826 113.64 54.8003 114.664C53.5817 115.641 52.8997 117.154 52.9815 118.731C52.8997 120.28 53.5817 121.774 54.8003 122.714C56.1917 123.719 57.8649 124.217 59.5655 124.144H64.1125C65.8312 124.217 67.5227 123.719 68.9231 122.714C70.1417 121.755 70.8238 120.252 70.7419 118.694C70.8238 117.126 70.1417 115.614 68.9231 114.646C67.5227 113.631 65.8312 113.115 64.1125 113.198H59.5655Z" fill="#FFB800"/>
<path d="M74.2508 83.8125V88.8658L57.4998 99.0093V99.1107H74.2326V104.164H49.4062V99.1107L66.1482 88.9672V88.8658H49.4062V83.8125H74.2508Z" fill="#FFB800"/>
<path d="M63.3381 64.7688V74.11H70.4768V63.0444H74.2963V79.2002H49.4062V63.0352H53.253V74.1008H59.4914V64.7688H63.3381Z" fill="#FFB800"/>
</svg>
