<svg width="130" height="43" viewBox="0 0 130 43" fill="none" xmlns="http://www.w3.org/2000/svg">
<rect x="0.8978" y="1.1478" width="127.996" height="40.8088" rx="4.86236" stroke="#9DA2B3" stroke-width="0.88935"/>
<path d="M25.7794 21.2209C25.79 20.3982 26.0085 19.5917 26.4146 18.8762C26.8207 18.1607 27.4012 17.5595 28.102 17.1286C27.6568 16.4928 27.0695 15.9695 26.3866 15.6003C25.7038 15.2312 24.9442 15.0263 24.1684 15.002C22.5133 14.8283 20.9088 15.9924 20.0655 15.9924C19.2058 15.9924 17.9072 15.0193 16.5089 15.0481C15.6045 15.0773 14.723 15.3403 13.9505 15.8115C13.1779 16.2826 12.5405 16.9459 12.1005 17.7366C10.1943 21.0368 11.6161 25.887 13.4421 28.5546C14.3556 29.8608 15.4233 31.32 16.8203 31.2682C18.1874 31.2115 18.698 30.3965 20.3481 30.3965C21.983 30.3965 22.462 31.2682 23.8874 31.2353C25.3543 31.2115 26.2786 29.9233 27.1601 28.6046C27.8165 27.6739 28.3215 26.6452 28.6566 25.5567C27.8044 25.1962 27.0771 24.5929 26.5654 23.8218C26.0538 23.0508 25.7804 22.1462 25.7794 21.2209V21.2209Z" fill="#9DA2B3"/>
<path d="M23.0904 13.245C23.8902 12.2848 24.2843 11.0507 24.1889 9.80469C22.9669 9.93303 21.8381 10.5171 21.0275 11.4404C20.6312 11.8915 20.3276 12.4162 20.1342 12.9847C19.9408 13.5531 19.8613 14.1542 19.9003 14.7533C20.5115 14.7596 21.1161 14.6272 21.6687 14.3659C22.2213 14.1046 22.7074 13.7214 23.0904 13.245Z" fill="#9DA2B3"/>
<path d="M38.0128 17.0391V11.5804H39.7224C39.7729 11.5804 39.8664 11.5817 40.0029 11.5842C40.1419 11.5867 40.2746 11.5968 40.4009 11.6145C40.828 11.6676 41.1869 11.8205 41.4775 12.0732C41.7706 12.3259 41.9918 12.6469 42.1409 13.036C42.29 13.4227 42.3645 13.8473 42.3645 14.3097C42.3645 14.7747 42.29 15.2018 42.1409 15.591C41.9918 15.9777 41.7706 16.2973 41.4775 16.5501C41.1869 16.8002 40.828 16.9519 40.4009 17.0049C40.2746 17.0226 40.1419 17.0327 40.0029 17.0353C39.8664 17.0378 39.7729 17.0391 39.7224 17.0391H38.0128ZM38.824 16.2847H39.7224C39.8083 16.2847 39.9107 16.2822 40.0294 16.2771C40.1482 16.2721 40.2531 16.262 40.3441 16.2468C40.6221 16.1937 40.847 16.0737 41.0188 15.8867C41.1932 15.6971 41.3208 15.4646 41.4017 15.1892C41.4826 14.9137 41.523 14.6206 41.523 14.3097C41.523 13.9888 41.4813 13.6918 41.3979 13.4189C41.3145 13.1434 41.1856 12.9135 41.0112 12.729C40.8394 12.542 40.617 12.4232 40.3441 12.3727C40.2531 12.355 40.1469 12.3449 40.0256 12.3423C39.9069 12.3373 39.8058 12.3348 39.7224 12.3348H38.824V16.2847ZM45.0251 17.1528C44.6157 17.1528 44.2606 17.0605 43.9599 16.8761C43.6592 16.6916 43.4267 16.4376 43.2624 16.1141C43.1007 15.7881 43.0198 15.4128 43.0198 14.9883C43.0198 14.5612 43.1032 14.1859 43.27 13.8624C43.4368 13.5364 43.6705 13.2837 43.9713 13.1043C44.272 12.9223 44.6233 12.8313 45.0251 12.8313C45.4345 12.8313 45.7896 12.9236 46.0903 13.1081C46.391 13.2925 46.6235 13.5465 46.7878 13.87C46.9521 14.1935 47.0342 14.5662 47.0342 14.9883C47.0342 15.4154 46.9508 15.7919 46.784 16.1179C46.6197 16.4414 46.3872 16.6954 46.0865 16.8799C45.7858 17.0618 45.432 17.1528 45.0251 17.1528ZM45.0251 16.406C45.4168 16.406 45.7087 16.2746 45.9008 16.0118C46.0954 15.7464 46.1926 15.4053 46.1926 14.9883C46.1926 14.5612 46.0941 14.22 45.897 13.9648C45.7024 13.707 45.4118 13.5781 45.0251 13.5781C44.7597 13.5781 44.5411 13.6388 44.3693 13.7601C44.1975 13.8788 44.0698 14.0444 43.9864 14.2567C43.903 14.4664 43.8613 14.7103 43.8613 14.9883C43.8613 15.4179 43.9599 15.7616 44.157 16.0194C44.3541 16.2771 44.6435 16.406 45.0251 16.406ZM48.591 17.0391L47.3401 12.9413L48.1247 12.9451L48.9814 15.754L49.8457 12.9451H50.5281L51.3924 15.754L52.2491 12.9451H53.03L51.779 17.0391H51.1422L50.1869 14.0747L49.2278 17.0391H48.591ZM56.5822 17.0391V15.0262C56.5822 14.867 56.5683 14.704 56.5405 14.5372C56.5152 14.3679 56.4647 14.2112 56.3888 14.0671C56.3156 13.9231 56.2107 13.8068 56.0742 13.7184C55.9403 13.6299 55.7646 13.5857 55.5473 13.5857C55.4058 13.5857 55.2718 13.6097 55.1455 13.6577C55.0191 13.7032 54.9079 13.7778 54.8119 13.8814C54.7184 13.985 54.6438 14.1215 54.5882 14.2908C54.5352 14.4601 54.5086 14.6661 54.5086 14.9087L54.0158 14.7229C54.0158 14.3514 54.0853 14.0242 54.2243 13.7411C54.3633 13.4555 54.563 13.2332 54.8233 13.0739C55.0836 12.9147 55.3982 12.8351 55.7672 12.8351C56.0502 12.8351 56.2878 12.8806 56.4798 12.9716C56.6719 13.0626 56.8273 13.1826 56.9461 13.3317C57.0674 13.4783 57.1596 13.6388 57.2228 13.8131C57.286 13.9875 57.329 14.1581 57.3517 14.3249C57.3744 14.4917 57.3858 14.6383 57.3858 14.7646V17.0391H56.5822ZM53.705 17.0391V12.9451H54.4139V14.1278H54.5086V17.0391H53.705ZM58.449 17.0391V11.4667H59.2413V17.0391H58.449ZM62.1575 17.1528C61.7481 17.1528 61.393 17.0605 61.0923 16.8761C60.7915 16.6916 60.559 16.4376 60.3948 16.1141C60.233 15.7881 60.1522 15.4128 60.1522 14.9883C60.1522 14.5612 60.2356 14.1859 60.4024 13.8624C60.5691 13.5364 60.8029 13.2837 61.1036 13.1043C61.4044 12.9223 61.7557 12.8313 62.1575 12.8313C62.5669 12.8313 62.9219 12.9236 63.2227 13.1081C63.5234 13.2925 63.7559 13.5465 63.9202 13.87C64.0844 14.1935 64.1666 14.5662 64.1666 14.9883C64.1666 15.4154 64.0832 15.7919 63.9164 16.1179C63.7521 16.4414 63.5196 16.6954 63.2189 16.8799C62.9181 17.0618 62.5643 17.1528 62.1575 17.1528ZM62.1575 16.406C62.5492 16.406 62.8411 16.2746 63.0331 16.0118C63.2277 15.7464 63.325 15.4053 63.325 14.9883C63.325 14.5612 63.2265 14.22 63.0293 13.9648C62.8347 13.707 62.5441 13.5781 62.1575 13.5781C61.8921 13.5781 61.6735 13.6388 61.5017 13.7601C61.3298 13.8788 61.2022 14.0444 61.1188 14.2567C61.0354 14.4664 60.9937 14.7103 60.9937 14.9883C60.9937 15.4179 61.0923 15.7616 61.2894 16.0194C61.4865 16.2771 61.7759 16.406 62.1575 16.406ZM66.1558 17.1528C65.8525 17.1528 65.5985 17.0972 65.3938 16.986C65.1891 16.8723 65.0337 16.7232 64.9276 16.5387C64.8239 16.3517 64.7721 16.147 64.7721 15.9246C64.7721 15.7174 64.8088 15.5354 64.8821 15.3787C64.9554 15.222 65.064 15.0894 65.2081 14.9807C65.3521 14.8695 65.529 14.7798 65.7388 14.7115C65.9207 14.6585 66.1267 14.6117 66.3567 14.5713C66.5866 14.5309 66.828 14.4929 67.0807 14.4576C67.3359 14.4222 67.5887 14.3868 67.8388 14.3514L67.5507 14.5106C67.5558 14.1897 67.4876 13.9521 67.346 13.798C67.2071 13.6413 66.967 13.563 66.6258 13.563C66.411 13.563 66.2139 13.6135 66.0344 13.7146C65.855 13.8131 65.7299 13.9774 65.6592 14.2074L64.92 13.9799C65.0211 13.6287 65.2131 13.3494 65.4962 13.1422C65.7817 12.935 66.1608 12.8313 66.6334 12.8313C66.9998 12.8313 67.3182 12.8945 67.5887 13.0209C67.8616 13.1447 68.0612 13.3418 68.1876 13.6122C68.2533 13.7462 68.2937 13.8877 68.3089 14.0368C68.3241 14.1859 68.3316 14.3464 68.3316 14.5182V17.0391H67.6303V16.1027L67.7668 16.2241C67.5975 16.5374 67.3814 16.7712 67.1186 16.9253C66.8583 17.077 66.5374 17.1528 66.1558 17.1528ZM66.296 16.5046C66.5209 16.5046 66.7143 16.4654 66.876 16.3871C67.0377 16.3062 67.1679 16.2038 67.2664 16.08C67.365 15.9562 67.4294 15.8273 67.4598 15.6933C67.5027 15.572 67.5267 15.4356 67.5318 15.2839C67.5394 15.1323 67.5432 15.011 67.5432 14.92L67.8009 15.0148C67.5507 15.0527 67.3233 15.0868 67.1186 15.1172C66.9139 15.1475 66.7282 15.1778 66.5614 15.2081C66.3971 15.2359 66.2505 15.2701 66.1216 15.3105C66.013 15.3484 65.9157 15.3939 65.8297 15.447C65.7464 15.5 65.6794 15.5645 65.6288 15.6403C65.5808 15.7161 65.5568 15.8083 65.5568 15.917C65.5568 16.0231 65.5833 16.1217 65.6364 16.2127C65.6895 16.3011 65.7704 16.3719 65.879 16.425C65.9877 16.478 66.1267 16.5046 66.296 16.5046ZM70.9422 17.1528C70.5606 17.1528 70.2308 17.058 69.9528 16.8685C69.6774 16.6789 69.4638 16.4212 69.3122 16.0952C69.1631 15.7666 69.0885 15.3977 69.0885 14.9883C69.0885 14.5763 69.1644 14.2086 69.316 13.8852C69.4676 13.5592 69.6824 13.3027 69.9604 13.1156C70.2409 12.9261 70.5732 12.8313 70.9574 12.8313C71.344 12.8313 71.6688 12.9261 71.9316 13.1156C72.1969 13.3027 72.3966 13.5592 72.5305 13.8852C72.667 14.2112 72.7352 14.5789 72.7352 14.9883C72.7352 15.3977 72.667 15.7654 72.5305 16.0914C72.3941 16.4174 72.1932 16.6764 71.9278 16.8685C71.6625 17.058 71.3339 17.1528 70.9422 17.1528ZM71.0521 16.4363C71.3124 16.4363 71.5247 16.3744 71.689 16.2506C71.8533 16.1268 71.9733 15.9562 72.0491 15.7388C72.1249 15.5215 72.1628 15.2713 72.1628 14.9883C72.1628 14.7052 72.1237 14.455 72.0453 14.2377C71.9695 14.0204 71.8507 13.851 71.689 13.7297C71.5298 13.6084 71.3263 13.5478 71.0787 13.5478C70.8159 13.5478 70.5998 13.6122 70.4305 13.7411C70.2611 13.87 70.1348 14.0431 70.0514 14.2604C69.9705 14.4778 69.9301 14.7204 69.9301 14.9883C69.9301 15.2587 69.9705 15.5038 70.0514 15.7237C70.1348 15.941 70.2586 16.1141 70.4229 16.243C70.5897 16.3719 70.7994 16.4363 71.0521 16.4363ZM72.1628 17.0391V14.0937H72.0719V11.5804H72.8679V17.0391H72.1628ZM77.2242 17.1528C76.8148 17.1528 76.4597 17.0605 76.159 16.8761C75.8582 16.6916 75.6258 16.4376 75.4615 16.1141C75.2997 15.7881 75.2189 15.4128 75.2189 14.9883C75.2189 14.5612 75.3023 14.1859 75.4691 13.8624C75.6359 13.5364 75.8696 13.2837 76.1704 13.1043C76.4711 12.9223 76.8224 12.8313 77.2242 12.8313C77.6336 12.8313 77.9886 12.9236 78.2894 13.1081C78.5901 13.2925 78.8226 13.5465 78.9869 13.87C79.1511 14.1935 79.2333 14.5662 79.2333 14.9883C79.2333 15.4154 79.1499 15.7919 78.9831 16.1179C78.8188 16.4414 78.5863 16.6954 78.2856 16.8799C77.9849 17.0618 77.6311 17.1528 77.2242 17.1528ZM77.2242 16.406C77.6159 16.406 77.9078 16.2746 78.0998 16.0118C78.2944 15.7464 78.3917 15.4053 78.3917 14.9883C78.3917 14.5612 78.2932 14.22 78.0961 13.9648C77.9015 13.707 77.6108 13.5781 77.2242 13.5781C76.9588 13.5781 76.7402 13.6388 76.5684 13.7601C76.3965 13.8788 76.2689 14.0444 76.1855 14.2567C76.1021 14.4664 76.0604 14.7103 76.0604 14.9883C76.0604 15.4179 76.159 15.7616 76.3561 16.0194C76.5532 16.2771 76.8426 16.406 77.2242 16.406ZM82.9397 17.0391V15.0262C82.9397 14.867 82.9258 14.704 82.898 14.5372C82.8727 14.3679 82.8222 14.2112 82.7463 14.0671C82.6731 13.9231 82.5682 13.8068 82.4317 13.7184C82.2978 13.6299 82.1221 13.5857 81.9048 13.5857C81.7633 13.5857 81.6293 13.6097 81.503 13.6577C81.3766 13.7032 81.2654 13.7778 81.1694 13.8814C81.0759 13.985 81.0013 14.1215 80.9457 14.2908C80.8927 14.4601 80.8661 14.6661 80.8661 14.9087L80.3733 14.7229C80.3733 14.3514 80.4428 14.0242 80.5818 13.7411C80.7208 13.4555 80.9205 13.2332 81.1808 13.0739C81.4411 12.9147 81.7557 12.8351 82.1247 12.8351C82.4077 12.8351 82.6453 12.8806 82.8373 12.9716C83.0294 13.0626 83.1848 13.1826 83.3036 13.3317C83.4249 13.4783 83.5171 13.6388 83.5803 13.8131C83.6435 13.9875 83.6864 14.1581 83.7092 14.3249C83.7319 14.4917 83.7433 14.6383 83.7433 14.7646V17.0391H82.9397ZM80.0625 17.0391V12.9451H80.7714V14.1278H80.8661V17.0391H80.0625ZM88.5911 17.0391C88.3334 17.0896 88.0806 17.1111 87.833 17.1035C87.5853 17.0959 87.3642 17.0479 87.1696 16.9595C86.975 16.871 86.8284 16.732 86.7299 16.5425C86.6414 16.3732 86.5934 16.2013 86.5858 16.0269C86.5808 15.85 86.5782 15.6504 86.5782 15.428V11.8078H87.3743V15.3901C87.3743 15.5544 87.3756 15.6971 87.3781 15.8184C87.3831 15.9397 87.4097 16.0421 87.4577 16.1255C87.5487 16.2822 87.6927 16.3719 87.8898 16.3946C88.0895 16.4149 88.3233 16.406 88.5911 16.3681V17.0391ZM85.7936 13.5819V12.9451H88.5911V13.5819H85.7936ZM92.3277 17.0391V15.0262C92.3277 14.867 92.3138 14.704 92.286 14.5372C92.2607 14.3679 92.2102 14.2112 92.1343 14.0671C92.0611 13.9231 91.9562 13.8068 91.8197 13.7184C91.6858 13.6299 91.5101 13.5857 91.2928 13.5857C91.1513 13.5857 91.0173 13.6097 90.891 13.6577C90.7646 13.7032 90.6534 13.7778 90.5574 13.8814C90.4639 13.985 90.3893 14.1215 90.3337 14.2908C90.2807 14.4601 90.2541 14.6661 90.2541 14.9087L89.7613 14.7229C89.7613 14.3514 89.8308 14.0242 89.9698 13.7411C90.1088 13.4555 90.3085 13.2332 90.5688 13.0739C90.8291 12.9147 91.1437 12.8351 91.5127 12.8351C91.7957 12.8351 92.0333 12.8806 92.2253 12.9716C92.4174 13.0626 92.5728 13.1826 92.6916 13.3317C92.8129 13.4783 92.9051 13.6388 92.9683 13.8131C93.0315 13.9875 93.0745 14.1581 93.0972 14.3249C93.1199 14.4917 93.1313 14.6383 93.1313 14.7646V17.0391H92.3277ZM89.4505 17.0391V11.5804H90.1594V14.5258H90.2541V17.0391H89.4505ZM95.9344 17.1528C95.5276 17.1528 95.17 17.0643 94.8617 16.8874C94.5559 16.708 94.3171 16.4591 94.1452 16.1407C93.9759 15.8197 93.8912 15.4482 93.8912 15.0262C93.8912 14.5789 93.9746 14.191 94.1414 13.8624C94.3107 13.5339 94.5458 13.2799 94.8465 13.1005C95.1472 12.9211 95.4972 12.8313 95.8965 12.8313C96.3135 12.8313 96.6686 12.9286 96.9617 13.1232C97.2549 13.3153 97.4735 13.5895 97.6175 13.9458C97.7641 14.3021 97.8222 14.7254 97.7919 15.2157H96.9996V14.9276C96.9946 14.4525 96.9036 14.1012 96.7267 13.8738C96.5523 13.6463 96.2857 13.5326 95.9269 13.5326C95.5301 13.5326 95.2319 13.6577 95.0322 13.9079C94.8326 14.1581 94.7328 14.5195 94.7328 14.9921C94.7328 15.4419 94.8326 15.7906 95.0322 16.0383C95.2319 16.2834 95.52 16.406 95.8965 16.406C96.1442 16.406 96.3577 16.3504 96.5372 16.2392C96.7191 16.1255 96.8606 15.9638 96.9617 15.754L97.7388 16.0004C97.5796 16.3668 97.3383 16.6511 97.0148 16.8533C96.6913 17.053 96.3312 17.1528 95.9344 17.1528ZM94.475 15.2157V14.5978H97.3977V15.2157H94.475Z" fill="#9DA2B3"/>
<path d="M37.1378 32.625L40.5798 21.7077H43.256L46.698 32.625H44.8178L41.6943 22.8297H42.1037L39.018 32.625H37.1378ZM39.0559 30.2596V28.5537H44.7875V30.2596H39.0559ZM52.0035 32.8524C51.205 32.8524 50.5353 32.6629 49.9944 32.2838C49.4536 31.9048 49.0468 31.3892 48.7738 30.7372C48.5009 30.0801 48.3644 29.3447 48.3644 28.531C48.3644 27.7071 48.5009 26.9692 48.7738 26.3172C49.0468 25.6652 49.446 25.1522 49.9717 24.7782C50.5024 24.3991 51.1569 24.2096 51.9353 24.2096C52.7086 24.2096 53.3783 24.3991 53.9444 24.7782C54.5155 25.1522 54.9578 25.6652 55.2712 26.3172C55.5845 26.9642 55.7412 27.7021 55.7412 28.531C55.7412 29.3498 55.587 30.0852 55.2787 30.7372C54.9704 31.3892 54.5357 31.9048 53.9747 32.2838C53.4137 32.6629 52.7566 32.8524 52.0035 32.8524ZM48.0536 36.2641V24.437H49.6684V30.1838H49.8959V36.2641H48.0536ZM51.723 31.2148C52.1981 31.2148 52.5898 31.0961 52.8981 30.8585C53.2065 30.621 53.4339 30.3 53.5805 29.8957C53.7321 29.4863 53.8079 29.0314 53.8079 28.531C53.8079 28.0357 53.7321 27.5858 53.5805 27.1815C53.4289 26.7721 53.1938 26.4486 52.8754 26.2111C52.557 25.9685 52.1526 25.8472 51.6624 25.8472C51.1974 25.8472 50.8183 25.9609 50.5251 26.1883C50.232 26.4107 50.0147 26.7241 49.8731 27.1284C49.7367 27.5277 49.6684 27.9952 49.6684 28.531C49.6684 29.0617 49.7367 29.5292 49.8731 29.9336C50.0147 30.3379 50.2345 30.6538 50.5327 30.8813C50.836 31.1036 51.2327 31.2148 51.723 31.2148ZM61.3471 32.8524C60.5485 32.8524 59.8788 32.6629 59.338 32.2838C58.7972 31.9048 58.3903 31.3892 58.1174 30.7372C57.8445 30.0801 57.708 29.3447 57.708 28.531C57.708 27.7071 57.8445 26.9692 58.1174 26.3172C58.3903 25.6652 58.7896 25.1522 59.3153 24.7782C59.846 24.3991 60.5005 24.2096 61.2789 24.2096C62.0522 24.2096 62.7219 24.3991 63.288 24.7782C63.8591 25.1522 64.3014 25.6652 64.6147 26.3172C64.9281 26.9642 65.0848 27.7021 65.0848 28.531C65.0848 29.3498 64.9306 30.0852 64.6223 30.7372C64.314 31.3892 63.8793 31.9048 63.3183 32.2838C62.7573 32.6629 62.1002 32.8524 61.3471 32.8524ZM57.3972 36.2641V24.437H59.012V30.1838H59.2395V36.2641H57.3972ZM61.0666 31.2148C61.5417 31.2148 61.9334 31.0961 62.2417 30.8585C62.55 30.621 62.7775 30.3 62.9241 29.8957C63.0757 29.4863 63.1515 29.0314 63.1515 28.531C63.1515 28.0357 63.0757 27.5858 62.9241 27.1815C62.7724 26.7721 62.5374 26.4486 62.219 26.2111C61.9006 25.9685 61.4962 25.8472 61.006 25.8472C60.541 25.8472 60.1619 25.9609 59.8687 26.1883C59.5756 26.4107 59.3582 26.7241 59.2167 27.1284C59.0803 27.5277 59.012 27.9952 59.012 28.531C59.012 29.0617 59.0803 29.5292 59.2167 29.9336C59.3582 30.3379 59.5781 30.6538 59.8763 30.8813C60.1796 31.1036 60.5763 31.2148 61.0666 31.2148ZM73.8324 32.8524C73.0338 32.8524 72.3136 32.7135 71.6717 32.4355C71.0348 32.1575 70.5092 31.7607 70.0947 31.2452C69.6853 30.7246 69.425 30.1079 69.3138 29.3953L71.2092 29.1072C71.3709 29.7541 71.702 30.2545 72.2024 30.6083C72.7078 30.9621 73.2891 31.139 73.9461 31.139C74.3353 31.139 74.7017 31.0784 75.0454 30.9571C75.3891 30.8358 75.6671 30.6589 75.8794 30.4264C76.0967 30.1939 76.2054 29.9083 76.2054 29.5697C76.2054 29.418 76.1801 29.279 76.1296 29.1527C76.079 29.0213 76.0032 28.905 75.9021 28.8039C75.8061 28.7028 75.6797 28.6119 75.5231 28.531C75.3714 28.4451 75.1945 28.3718 74.9924 28.3111L72.172 27.4772C71.9294 27.4064 71.6666 27.3129 71.3836 27.1967C71.1056 27.0754 70.8402 26.9111 70.5875 26.7039C70.3399 26.4916 70.1352 26.2237 69.9734 25.9002C69.8167 25.5717 69.7384 25.1673 69.7384 24.6872C69.7384 23.9846 69.9153 23.3958 70.2691 22.9207C70.628 22.4405 71.1081 22.0817 71.7096 21.8441C72.3161 21.6066 72.9883 21.4903 73.7263 21.4954C74.4743 21.5004 75.1415 21.6293 75.7278 21.882C76.3141 22.1297 76.8043 22.4911 77.1986 22.9662C77.5928 23.4413 77.8708 24.015 78.0325 24.6872L76.0689 25.0284C75.9881 24.6442 75.8314 24.3182 75.5989 24.0503C75.3714 23.7774 75.0909 23.5702 74.7573 23.4287C74.4288 23.2871 74.0775 23.2113 73.7035 23.2012C73.3396 23.1962 73.001 23.2518 72.6876 23.368C72.3793 23.4792 72.1291 23.6409 71.937 23.8532C71.75 24.0655 71.6565 24.3132 71.6565 24.5962C71.6565 24.8641 71.7374 25.084 71.8991 25.2558C72.0609 25.4226 72.2605 25.5565 72.4981 25.6576C72.7407 25.7537 72.9858 25.8345 73.2335 25.9002L75.1895 26.4461C75.4574 26.5169 75.7581 26.6129 76.0917 26.7342C76.4253 26.8555 76.7462 27.0248 77.0545 27.2421C77.3628 27.4595 77.6156 27.7451 77.8127 28.0989C78.0148 28.4527 78.1159 28.9025 78.1159 29.4484C78.1159 30.0144 77.9972 30.5123 77.7596 30.9419C77.5271 31.3665 77.2112 31.7203 76.8119 32.0033C76.4126 32.2864 75.9552 32.4986 75.4397 32.6402C74.9292 32.7817 74.3934 32.8524 73.8324 32.8524ZM84.556 32.625C84.0152 32.7261 83.4845 32.769 82.9639 32.7539C82.4484 32.7438 81.9859 32.6503 81.5765 32.4734C81.1671 32.2914 80.8563 32.0058 80.644 31.6167C80.457 31.2629 80.3584 30.9015 80.3483 30.5325C80.3382 30.1635 80.3332 29.7466 80.3332 29.2816V22.1626H82.1527V29.1754C82.1527 29.504 82.1552 29.7921 82.1603 30.0397C82.1704 30.2874 82.2235 30.4895 82.3195 30.6462C82.5015 30.9495 82.7921 31.1188 83.1914 31.1542C83.5907 31.1896 84.0456 31.1694 84.556 31.0935V32.625ZM78.8472 25.8699V24.437H84.556V25.8699H78.8472ZM89.5185 32.8524C88.6997 32.8524 87.9845 32.668 87.3729 32.299C86.7613 31.93 86.2862 31.4221 85.9476 30.7751C85.614 30.1231 85.4472 29.3751 85.4472 28.531C85.4472 27.6718 85.6191 26.9187 85.9628 26.2717C86.3065 25.6248 86.7841 25.1193 87.3957 24.7554C88.0072 24.3915 88.7148 24.2096 89.5185 24.2096C90.3423 24.2096 91.06 24.394 91.6716 24.763C92.2832 25.132 92.7583 25.6425 93.0969 26.2945C93.4356 26.9414 93.6049 27.6869 93.6049 28.531C93.6049 29.3801 93.4331 30.1307 93.0894 30.7827C92.7507 31.4297 92.2756 31.9376 91.664 32.3066C91.0525 32.6705 90.3373 32.8524 89.5185 32.8524ZM89.5185 31.139C90.2463 31.139 90.7871 30.8964 91.1409 30.4112C91.4947 29.926 91.6716 29.2993 91.6716 28.531C91.6716 27.7375 91.4922 27.1057 91.1333 26.6356C90.7745 26.1605 90.2362 25.923 89.5185 25.923C89.0282 25.923 88.6239 26.0342 88.3054 26.2566C87.9921 26.4739 87.7596 26.7797 87.6079 27.1739C87.4563 27.5631 87.3805 28.0155 87.3805 28.531C87.3805 29.3245 87.5599 29.9588 87.9188 30.434C88.2827 30.904 88.8159 31.139 89.5185 31.139ZM95.2753 32.625V24.437H96.8902V26.4309L96.693 26.1732C96.7941 25.9002 96.9281 25.6526 97.0949 25.4302C97.2667 25.2027 97.4714 25.0157 97.709 24.8691C97.9111 24.7327 98.1335 24.6265 98.3761 24.5507C98.6238 24.4699 98.8765 24.4218 99.1343 24.4067C99.3921 24.3865 99.6422 24.3966 99.8849 24.437V26.1428C99.6422 26.0721 99.3617 26.0493 99.0433 26.0746C98.7299 26.0999 98.4469 26.1883 98.1942 26.34C97.9415 26.4764 97.7342 26.6508 97.5725 26.8631C97.4158 27.0754 97.2996 27.318 97.2238 27.5909C97.1479 27.8588 97.11 28.1494 97.11 28.4628V32.625H95.2753ZM104.906 32.8524C104.077 32.8524 103.349 32.673 102.723 32.3142C102.096 31.9553 101.606 31.4575 101.252 30.8206C100.903 30.1838 100.729 29.4509 100.729 28.622C100.729 27.7274 100.9 26.9515 101.244 26.2945C101.588 25.6323 102.066 25.1193 102.677 24.7554C103.289 24.3915 103.996 24.2096 104.8 24.2096C105.649 24.2096 106.369 24.4092 106.961 24.8085C107.557 25.2027 107.999 25.7612 108.287 26.484C108.575 27.2068 108.684 28.0584 108.613 29.039H106.801V28.3718C106.796 27.4822 106.64 26.8327 106.331 26.4233C106.023 26.0139 105.538 25.8092 104.876 25.8092C104.128 25.8092 103.572 26.0417 103.208 26.5067C102.844 26.9667 102.662 27.6414 102.662 28.531C102.662 29.3599 102.844 30.0018 103.208 30.4567C103.572 30.9116 104.102 31.139 104.8 31.139C105.25 31.139 105.636 31.0405 105.96 30.8434C106.288 30.6412 106.541 30.3506 106.718 29.9715L108.522 30.5173C108.209 31.2553 107.724 31.8289 107.067 32.2383C106.415 32.6477 105.695 32.8524 104.906 32.8524ZM102.086 29.039V27.6591H107.719V29.039H102.086Z" fill="#9DA2B3"/>
</svg>
