<svg width="20" height="21" viewBox="0 0 20 21" fill="none" xmlns="http://www.w3.org/2000/svg">
<g id="Social icons">
<g clip-path="url(#clip0_69_2726)">
<path id="Vector" d="M20 10.2363C20 4.71348 15.5229 0.236328 10 0.236328C4.47715 0.236328 0 4.71348 0 10.2363C0 15.2275 3.65684 19.3647 8.4375 20.1148V13.127H5.89844V10.2363H8.4375V8.0332C8.4375 5.52695 9.93047 4.14258 12.2146 4.14258C13.3084 4.14258 14.4531 4.33789 14.4531 4.33789V6.79883H13.1922C11.95 6.79883 11.5625 7.56973 11.5625 8.36133V10.2363H14.3359L13.8926 13.127H11.5625V20.1148C16.3432 19.3647 20 15.2275 20 10.2363Z" fill="#9CA3AF"/>
</g>
</g>
<defs>
<clipPath id="clip0_69_2726">
<rect y="0.236328" width="20" height="20" rx="10" fill="white"/>
</clipPath>
</defs>
</svg>
