<svg width="20" height="21" viewBox="0 0 20 21" fill="none" xmlns="http://www.w3.org/2000/svg">
<g id="Social icons">
<path id="Vector" fill-rule="evenodd" clip-rule="evenodd" d="M16.3321 17.2785H13.4912V12.6363C13.4912 11.5308 13.4731 10.1063 12.0143 10.1063C10.5342 10.1063 10.3095 11.313 10.3095 12.5585V17.2785H7.46861V7.73411H10.1935V9.03855H10.2329C10.6119 8.28855 11.5394 7.49744 12.9226 7.49744C15.8008 7.49744 16.3332 9.47299 16.3332 12.0441V17.2785H16.3321ZM4.26458 6.43077C4.04812 6.43099 3.83374 6.38672 3.63367 6.30048C3.43361 6.21425 3.25178 6.08774 3.09857 5.92817C2.94536 5.76861 2.82377 5.57912 2.74074 5.37053C2.65771 5.16193 2.61486 4.93831 2.61465 4.71244C2.61444 4.48657 2.65687 4.26286 2.73951 4.0541C2.82216 3.84533 2.9434 3.6556 3.09631 3.49573C3.24922 3.33586 3.43082 3.20898 3.63072 3.12234C3.83063 3.0357 4.04493 2.99099 4.26139 2.99077C4.69855 2.99033 5.11798 3.17112 5.4274 3.49337C5.73683 3.81562 5.9109 4.25293 5.91132 4.70911C5.91174 5.16528 5.73849 5.60294 5.42966 5.92582C5.12084 6.24869 4.70175 6.43033 4.26458 6.43077ZM2.84093 17.2785H5.68611V7.73411H2.83986L2.84093 17.2785ZM17.7483 0.236328H1.41407C0.633565 0.236328 0 0.881884 0 1.67855V18.793C0 19.5897 0.633565 20.2363 1.41407 20.2363H17.7483C18.5299 20.2363 19.1667 19.5897 19.1667 18.793V1.67855C19.1667 0.881884 18.5299 0.236328 17.7483 0.236328Z" fill="#9CA3AF"/>
</g>
</svg>
