<svg width="149" height="29" viewBox="0 0 149 29" fill="none" xmlns="http://www.w3.org/2000/svg">
<path fill-rule="evenodd" clip-rule="evenodd" d="M28.379 8.67792C28.3255 10.0815 27.7401 11.1596 26.7336 11.9962C23.9317 14.3203 21.0692 16.578 18.3101 18.9511C17.4357 19.7072 17.0894 19.0421 16.6147 18.6361C15.9223 18.0446 16.6433 17.74 16.9681 17.432C19.1596 15.3389 21.3226 13.2212 23.6176 11.2296C25.6271 9.48647 25.5985 7.62435 23.689 5.84273C22.9609 5.16369 22.1649 4.54765 21.4975 3.8196C20.6944 2.94105 19.9234 2.92005 18.974 3.57109C18.5671 3.85111 18.1995 4.64566 17.4856 3.82661C16.8539 3.10206 17.1644 2.60853 17.6962 2.07649C18.096 1.67747 18.4493 1.23644 18.8812 0.87592C20.1162 -0.156646 21.012 -0.135644 22.2185 0.949425C23.6033 2.192 24.9811 3.44858 26.3409 4.71566C27.5188 5.81473 28.304 7.11331 28.3754 8.68142L28.379 8.67792Z" fill="#9DA2B3"/>
<path fill-rule="evenodd" clip-rule="evenodd" d="M9.55891 0.575045C10.9902 0.463038 12.0538 1.3451 12.9783 2.41266C15.2911 5.09384 17.4184 7.92552 19.8883 10.4737C20.6486 11.2542 19.8348 11.5762 19.4743 12.0313C18.9568 12.6823 18.6998 12.1258 18.3857 11.8038C16.3726 9.71763 14.1989 7.79251 12.3144 5.58387C10.5476 3.51524 8.1669 2.57017 5.95753 5.62587C5.53279 6.21391 4.97598 6.72844 4.41918 7.20097C3.48047 7.99552 3.40194 8.80757 4.14435 9.77364C4.46915 10.1972 5.07949 10.5857 4.28355 11.2472C3.54114 11.8633 3.14496 11.5167 2.6524 11.0197C2.22766 10.5927 1.71368 10.2427 1.33177 9.78414C0.271706 8.50655 0.314538 7.73651 1.44956 6.54293C2.82015 5.10084 4.17647 3.64824 5.57205 2.23065C6.6107 1.18059 7.85994 0.522542 9.55534 0.568045L9.55891 0.575045Z" fill="#9DA2B3"/>
<path fill-rule="evenodd" clip-rule="evenodd" d="M19.27 28.1186C17.728 28.0346 16.5502 27.3591 15.6186 26.253C13.3593 23.5823 11.232 20.7996 8.79418 18.276C8.15171 17.6109 8.46224 17.1804 8.99048 16.6624C9.62224 16.0428 9.90778 16.4734 10.3325 16.9249C12.4348 19.165 14.6835 21.2617 16.7608 23.5333C18.5061 25.4444 20.3871 25.3044 22.1432 23.4283C22.7643 22.7668 23.4067 22.1192 24.0563 21.4822C25.2199 20.3341 25.252 19.9876 24.2848 18.633C24.0135 18.2515 23.4353 17.954 24.1955 17.4149C24.7702 17.0054 25.1592 16.7604 25.7232 17.3974C26.1479 17.8804 26.7368 18.22 27.1687 18.696C28.2252 19.8756 28.1752 20.9431 27.0795 22.0912C25.7017 23.5298 24.3347 24.9754 22.9463 26.4035C21.9362 27.4431 20.6655 27.9506 19.2771 28.1151L19.27 28.1186Z" fill="#9DA2B3"/>
<path fill-rule="evenodd" clip-rule="evenodd" d="M0.00687993 19.1995C-0.0716437 18.202 0.527991 17.1764 1.49883 16.3643C3.75817 14.4742 6.0532 12.6296 8.32681 10.7605C8.8622 10.3195 9.41901 9.89588 9.89015 9.39536C10.5112 8.73382 10.9645 8.80031 11.5748 9.44785C12.0531 9.95539 12.0139 10.183 11.5142 10.645C9.39045 12.6156 7.41665 14.7402 5.15731 16.5779C4.55054 17.0714 4.01872 17.6279 3.65109 18.335C2.91225 19.7561 3.02647 20.8481 4.15435 21.9647C5.10735 22.9063 6.11744 23.7918 7.10613 24.6984C7.91992 25.4404 8.67303 25.1639 9.4547 24.6074C9.84732 24.3309 10.1971 23.6903 10.8396 24.4324C11.4071 25.0834 11.3143 25.5209 10.7289 26.039C10.4077 26.3225 10.1614 26.6865 9.86159 26.998C8.48386 28.4226 7.41665 28.4611 5.95683 27.131C4.51842 25.8185 3.0693 24.5164 1.66658 23.1688C0.642207 22.1747 0.00331068 20.9776 0.00687993 19.1995Z" fill="#9DA2B3"/>
<path d="M50.1982 21.4009L49.2701 9.53859C49.2523 9.30058 49.2344 9.04506 49.2202 8.76504C49.2023 8.48852 49.1916 8.21901 49.1809 7.95649C49.1738 7.69397 49.1631 7.45596 49.1559 7.23544C49.1452 7.01843 49.1416 6.83992 49.1416 6.70341H49.0917C49.0417 6.95543 48.9525 7.33695 48.8347 7.84098C48.7133 8.34851 48.5848 8.83505 48.4492 9.30758L44.9156 21.3974H42.7741L39.5225 9.86411C39.3333 9.18857 39.1656 8.54803 39.0192 7.94249C38.8729 7.33695 38.773 6.91342 38.723 6.67891H38.673C38.673 6.82942 38.6623 7.04293 38.648 7.31245C38.6302 7.58197 38.6123 7.86898 38.5981 8.1735C38.5802 8.47802 38.5624 8.78254 38.5445 9.08356C38.5267 9.38808 38.5088 9.6471 38.4946 9.86761L37.5915 21.4009H35.168L36.767 3.97323H40.2506L43.2417 14.6734C43.4308 15.3805 43.5772 15.9895 43.6807 16.4936C43.7842 17.0011 43.852 17.3441 43.8877 17.5296H43.9412C43.9734 17.3091 44.0447 16.9486 44.1483 16.4411C44.2518 15.9335 44.3874 15.3875 44.5623 14.7959L47.6568 3.96973H51.1654L52.6895 21.3974H50.2124L50.1982 21.4009Z" fill="#9DA2B3"/>
<path d="M56.3622 15.5596V15.8641C56.3622 16.9772 56.5442 17.8207 56.9047 18.3948C57.2473 18.8988 57.6756 19.2768 58.1825 19.5184C58.6893 19.7634 59.2533 19.8859 59.8707 19.8859C61.0557 19.8859 62.1158 19.4798 63.0438 18.6713L63.9468 20.0644C62.6904 21.1425 61.2056 21.6815 59.4853 21.6815C58.5894 21.6815 57.7863 21.524 57.0724 21.2125C56.3586 20.9009 55.7518 20.4564 55.2521 19.8859C54.7524 19.3118 54.3705 18.6118 54.1028 17.7857C53.8351 16.9597 53.7031 16.0251 53.7031 14.9786C53.7031 13.932 53.8244 12.9519 54.0636 12.1854C54.3063 11.4188 54.6989 10.7153 55.2521 10.0747C56.2658 8.90917 57.565 8.32812 59.1462 8.32812C60.5739 8.32812 61.741 8.78315 62.6547 9.69321C62.9296 9.98023 63.1652 10.2883 63.365 10.6173C63.5613 10.9463 63.7255 11.3243 63.854 11.7549C63.9825 12.1854 64.0789 12.6789 64.136 13.2354C64.1967 13.792 64.2252 14.4325 64.2252 15.1571V15.5631H56.3586L56.3622 15.5596ZM61.7553 13.841C61.7553 12.6019 61.4876 11.6568 60.9558 11.0023C60.7488 10.7503 60.4918 10.5403 60.1813 10.3758C59.8707 10.2078 59.5102 10.1237 59.0962 10.1237C58.186 10.1237 57.5079 10.4528 57.0582 11.1178C56.612 11.7794 56.3871 12.6859 56.3871 13.8445H61.7517L61.7553 13.841Z" fill="#9DA2B3"/>
<path d="M70.5489 10.3718H67.9969V18.0093C67.9969 18.8038 68.1111 19.3428 68.3431 19.6299C68.5751 19.9169 69.0177 20.0604 69.6709 20.0604C70.0849 20.0604 70.4883 19.9764 70.8845 19.8084L71.1664 21.226C70.4454 21.5795 69.6602 21.758 68.8179 21.758C68.3895 21.758 67.9648 21.6985 67.5472 21.5795C67.1296 21.4605 66.8191 21.31 66.6085 21.1245C66.4693 21.0089 66.3444 20.8934 66.2301 20.7849C66.1159 20.6764 66.016 20.5329 65.9303 20.3544C65.8447 20.1794 65.7733 19.9449 65.7233 19.6579C65.6698 19.3708 65.6448 18.9998 65.6448 18.5448V10.3753H64.0957V8.73019H65.6448C65.6448 8.24016 65.6519 7.70112 65.6698 7.11309C65.6876 6.52505 65.7304 5.98251 65.7983 5.49598L68.2753 4.93945C68.2396 5.17746 68.2111 5.43998 68.1861 5.7375C68.1611 6.03152 68.1397 6.35004 68.1219 6.68606C68.104 7.02558 68.0862 7.3686 68.0683 7.72212C68.0505 8.07565 68.0433 8.41517 68.0433 8.73369H71.1914L70.5454 10.3788L70.5489 10.3718Z" fill="#9DA2B3"/>
<path d="M80.6083 21.933C79.766 21.6145 79.1913 21.0054 78.8808 20.1129C78.7951 20.2144 78.6595 20.3579 78.481 20.5434C78.299 20.7289 78.0599 20.9144 77.76 21.1C77.4602 21.2855 77.1033 21.4465 76.6893 21.5795C76.2752 21.716 75.7862 21.7825 75.2187 21.7825C73.9302 21.7825 72.9094 21.4675 72.1599 20.8339C71.4139 20.2004 71.0391 19.2763 71.0391 18.0653C71.0391 16.5812 71.6102 15.4576 72.7559 14.7015C73.8981 13.942 75.5221 13.564 77.6173 13.564H78.0563C78.1955 13.564 78.349 13.571 78.5203 13.5885V12.7554C78.5203 12.3844 78.4989 12.0449 78.456 11.7299C78.4132 11.4183 78.324 11.1523 78.1848 10.9318C78.0456 10.7148 77.8457 10.5433 77.578 10.4278C77.3103 10.3088 76.9534 10.2493 76.5072 10.2493C75.8184 10.2493 75.1188 10.3928 74.4049 10.6798C73.6911 10.9668 73.0665 11.3028 72.5346 11.6913L71.4532 10.0217C71.7637 9.85373 72.1028 9.66822 72.4704 9.46521C72.838 9.26219 73.2485 9.08018 73.6947 8.91917C74.1408 8.75816 74.6262 8.62515 75.1509 8.51314C75.6756 8.40464 76.2467 8.34863 76.8677 8.34863C77.8136 8.34863 78.6131 8.51664 79.2663 8.85617C79.9194 9.19569 80.3656 9.69972 80.6083 10.3753C80.6618 10.5118 80.7011 10.6448 80.7368 10.7813C80.7725 10.9178 80.7975 11.0683 80.8153 11.2363C80.8332 11.4043 80.8439 11.6003 80.8546 11.8174C80.8617 12.0379 80.8689 12.2969 80.8689 12.6014C80.8689 12.8359 80.8653 13.1229 80.8546 13.4625C80.8439 13.7985 80.8332 14.18 80.8153 14.6C80.7975 15.0236 80.7832 15.4646 80.7761 15.9266C80.7653 16.3922 80.7618 16.8507 80.7618 17.3057C80.7618 17.7607 80.7725 18.1213 80.7868 18.4328C80.8046 18.7443 80.8474 19.0173 80.9153 19.2553C80.9831 19.4898 81.0866 19.6964 81.2258 19.8749C81.365 20.0499 81.5613 20.2144 81.8183 20.3684L80.6047 21.9365L80.6083 21.933ZM78.4667 15.1776C78.2776 15.1601 78.1277 15.1496 78.017 15.1391C77.9028 15.1321 77.7957 15.1286 77.6922 15.1286C76.7999 15.1286 76.0754 15.2091 75.5257 15.3701C74.976 15.5311 74.5727 15.7551 74.3121 16.0386C74.0694 16.3256 73.8981 16.5987 73.7946 16.8612C73.6911 17.1237 73.6411 17.4632 73.6411 17.8867C73.6411 18.5938 73.816 19.1398 74.1694 19.5179C74.5227 19.8959 75.026 20.0884 75.6792 20.0884C76.2288 20.0884 76.7464 19.9379 77.2282 19.6334C77.7101 19.3288 78.0955 18.9263 78.3882 18.4188L78.4667 15.1811V15.1776Z" fill="#9DA2B3"/>
<path d="M98.2005 24.3098C98.1148 24.3588 97.9506 24.4148 97.7115 24.4743C97.4688 24.5338 97.1333 24.5618 96.7049 24.5618C96.4123 24.5618 96.1124 24.5163 95.8019 24.4218C95.4914 24.3308 95.1916 24.2188 94.8989 24.0927C94.6062 23.9667 94.3314 23.8267 94.0744 23.6762C93.8174 23.5257 93.5926 23.3892 93.4034 23.2702C92.8537 22.9167 92.3076 22.6051 91.7651 22.3356C91.2226 22.0661 90.523 21.8386 89.6628 21.6531C88.4778 21.6531 87.4748 21.4431 86.6575 21.023C85.8401 20.5995 85.1406 20.043 84.5552 19.3534C83.8485 18.5449 83.3309 17.5753 82.9954 16.4448C82.6599 15.3142 82.4922 14.0331 82.4922 12.6015C82.4922 10.6939 82.8063 9.04179 83.4345 7.6417C84.0626 6.24161 84.9585 5.20554 86.1292 4.53C87.1251 3.95596 88.3029 3.66895 89.6628 3.66895C91.0227 3.66895 92.1363 3.92796 93.0536 4.43899C93.9745 4.95353 94.7097 5.59757 95.2594 6.37462C95.8269 7.18317 96.2552 8.11073 96.5479 9.1573C96.8406 10.2039 96.9869 11.4079 96.9869 12.773C96.9869 14.4076 96.7728 15.7937 96.3409 16.9208C95.9126 18.0514 95.2844 19.0209 94.4563 19.8295C94.2671 20.015 94.0815 20.183 93.9031 20.337C93.721 20.4875 93.4962 20.6485 93.2213 20.8165C93.6175 20.953 94.0137 21.1316 94.4063 21.3591C94.8025 21.5866 95.1452 21.7861 95.4379 21.9541C95.7305 22.1221 96.0696 22.2866 96.4551 22.4476C96.8406 22.6086 97.2832 22.6892 97.7829 22.6892C98.0077 22.6892 98.2183 22.6822 98.4146 22.6646C98.6109 22.6472 98.7715 22.6226 98.8929 22.5876L98.1969 24.3063L98.2005 24.3098ZM94.1244 13.004C94.1244 11.842 94.0601 10.8549 93.9316 10.0463C93.8031 9.2378 93.6175 8.53776 93.3784 7.94622C93.257 7.6767 93.0964 7.39668 92.9001 7.10966C92.7038 6.82265 92.454 6.56713 92.1506 6.33962C91.8472 6.1121 91.4938 5.92659 91.0798 5.78308C90.6658 5.63957 90.1946 5.56957 89.6592 5.56957C88.9025 5.56957 88.2101 5.74108 87.5819 6.0876C86.9537 6.43412 86.4862 6.88565 86.1756 7.44219C85.8508 8.03372 85.6117 8.71977 85.4654 9.50382C85.319 10.2879 85.2441 11.2364 85.2441 12.3495C85.2441 13.7671 85.3654 14.9922 85.6046 16.0282C85.8473 17.0643 86.1649 17.8378 86.5611 18.3419C86.9395 18.8144 87.4106 19.1784 87.9817 19.4304C88.5492 19.6825 89.1595 19.8085 89.8127 19.8085C91.1869 19.8085 92.2362 19.2939 92.9608 18.2649C93.357 17.7258 93.6497 17.0433 93.8388 16.2172C94.028 15.3912 94.1244 14.3201 94.1244 13.004Z" fill="#9DA2B3"/>
<path d="M107.433 21.8317C107.105 21.5937 106.852 21.3417 106.673 21.0722C106.491 20.8026 106.341 20.4491 106.22 20.0081C105.206 21.2227 103.907 21.8282 102.326 21.8282C101.501 21.8282 100.784 21.6602 100.173 21.3207C99.5635 20.9846 99.1209 20.5191 98.8461 19.9276C98.7247 19.6756 98.6426 19.371 98.6034 19.0175C98.5606 18.664 98.5391 18.258 98.5391 17.8029V8.79683L100.887 8.3418V17.1694C100.887 17.8099 100.927 18.286 101.002 18.5975C101.08 18.909 101.237 19.175 101.48 19.3955C101.651 19.5461 101.872 19.6791 102.137 19.7876C102.404 19.8996 102.683 19.9521 102.975 19.9521C103.561 19.9521 104.128 19.7596 104.678 19.371C105.228 18.9825 105.642 18.51 105.916 17.9535V8.84584L108.265 8.39081V17.9289C108.265 19.245 108.533 20.1201 109.064 20.5611L107.44 21.8247L107.433 21.8317Z" fill="#9DA2B3"/>
<path d="M121.027 15.1781C121.027 16.1896 120.895 17.0997 120.627 17.9082C120.36 18.7168 119.981 19.4063 119.492 19.9699C119.003 20.5369 118.414 20.9744 117.725 21.286C117.037 21.5975 116.262 21.755 115.405 21.755C114.549 21.755 113.767 21.5975 113.071 21.286C112.375 20.9744 111.786 20.5264 111.304 19.9454C110.823 19.3643 110.455 18.6573 110.194 17.8312C109.937 17.0052 109.809 16.0776 109.809 15.0486C109.809 14.0195 109.937 13.0989 110.194 12.2799C110.451 11.4608 110.823 10.7608 111.304 10.1798C111.786 9.59869 112.364 9.15067 113.046 8.83915C113.724 8.52763 114.495 8.37012 115.355 8.37012C116.301 8.37012 117.129 8.54513 117.843 8.90215C118.557 9.25567 119.15 9.7387 119.624 10.3443C120.099 10.9498 120.449 11.6673 120.681 12.4934C120.913 13.3195 121.031 14.212 121.031 15.1746L121.027 15.1781ZM118.372 15.2796C118.372 14.303 118.304 13.484 118.164 12.8259C118.025 12.1679 117.825 11.6463 117.558 11.2578C117.29 10.8693 116.972 10.5928 116.605 10.4248C116.237 10.2568 115.82 10.1728 115.355 10.1728C114.324 10.1728 113.582 10.5438 113.125 11.2858C112.668 12.0279 112.439 13.2004 112.439 14.8035C112.439 15.7661 112.504 16.5747 112.632 17.2327C112.761 17.8907 112.95 18.4228 113.2 18.8253C113.45 19.2313 113.764 19.5219 114.142 19.6969C114.52 19.8754 114.959 19.9629 115.459 19.9629C116.351 19.9629 117.062 19.5954 117.586 18.8638C118.111 18.1288 118.372 16.9387 118.372 15.2831V15.2796Z" fill="#9DA2B3"/>
<path d="M127.475 10.3718H124.923V18.0093C124.923 18.8038 125.037 19.3428 125.269 19.6299C125.501 19.9169 125.943 20.0604 126.597 20.0604C127.011 20.0604 127.414 19.9764 127.81 19.8084L128.096 21.226C127.371 21.5795 126.59 21.758 125.747 21.758C125.319 21.758 124.894 21.6985 124.477 21.5795C124.059 21.4605 123.745 21.31 123.538 21.1245C123.399 21.0089 123.274 20.8934 123.159 20.7849C123.049 20.6764 122.945 20.5329 122.86 20.3544C122.774 20.1794 122.703 19.9449 122.653 19.6579C122.599 19.3708 122.574 18.9998 122.574 18.5448V10.3753H121.025V8.73019H122.574C122.574 8.24016 122.581 7.70112 122.599 7.11309C122.617 6.52505 122.66 5.98251 122.728 5.49598L125.205 4.93945C125.169 5.17746 125.14 5.43998 125.115 5.7375C125.09 6.03152 125.069 6.35004 125.051 6.68606C125.033 7.02558 125.015 7.3686 125.001 7.72212C124.983 8.07565 124.976 8.41517 124.976 8.73369H128.124L127.478 10.3788L127.475 10.3718Z" fill="#9DA2B3"/>
<path d="M130.753 15.5596V15.8641C130.753 16.9772 130.935 17.8207 131.296 18.3948C131.638 18.8988 132.063 19.2768 132.574 19.5184C133.08 19.7634 133.644 19.8859 134.262 19.8859C135.447 19.8859 136.507 19.4798 137.435 18.6713L138.338 20.0644C137.082 21.1425 135.593 21.6815 133.876 21.6815C132.98 21.6815 132.177 21.524 131.464 21.2125C130.75 20.9009 130.143 20.4564 129.643 19.8859C129.144 19.3118 128.762 18.6118 128.494 17.7857C128.226 16.9597 128.094 16.0251 128.094 14.9786C128.094 13.932 128.216 12.9519 128.455 12.1854C128.694 11.4188 129.09 10.7153 129.64 10.0747C130.653 8.90917 131.953 8.32812 133.534 8.32812C134.961 8.32812 136.129 8.78315 137.042 9.69321C137.317 9.98023 137.553 10.2883 137.753 10.6173C137.949 10.9463 138.113 11.3243 138.242 11.7549C138.37 12.1854 138.466 12.6789 138.527 13.2354C138.588 13.792 138.616 14.4325 138.616 15.1571V15.5631H130.75L130.753 15.5596ZM136.143 13.841C136.143 12.6019 135.875 11.6568 135.343 11.0023C135.136 10.7503 134.879 10.5403 134.569 10.3758C134.258 10.2078 133.898 10.1237 133.487 10.1237C132.577 10.1237 131.895 10.4528 131.449 11.1178C131.003 11.7794 130.778 12.6859 130.778 13.8445H136.143V13.841Z" fill="#9DA2B3"/>
<path d="M148.91 17.505C148.91 18.1456 148.785 18.7231 148.532 19.2376C148.278 19.7522 147.929 20.2002 147.475 20.5782C147.022 20.9597 146.487 21.2503 145.866 21.4498C145.244 21.6528 144.556 21.7543 143.799 21.7543C143.042 21.7543 142.196 21.6423 141.361 21.4113C140.526 21.1838 139.733 20.8512 138.973 20.4137L139.826 18.7441C140.447 19.0801 141.111 19.3776 141.825 19.6297C142.539 19.8817 143.256 20.0077 143.977 20.0077C144.698 20.0077 145.28 19.8222 145.719 19.4511C146.158 19.0801 146.376 18.5796 146.376 17.9566C146.376 17.4175 146.205 16.98 145.862 16.651C145.519 16.3219 144.97 16.0909 144.216 15.9544L142.65 15.6499C141.622 15.4469 140.844 15.0479 140.312 14.4458C139.78 13.8473 139.516 13.0737 139.516 12.1252C139.516 11.5511 139.626 11.0191 139.851 10.5291C140.076 10.039 140.394 9.61902 140.804 9.27249C141.218 8.92597 141.707 8.65645 142.275 8.46044C142.842 8.26443 143.478 8.16992 144.184 8.16992C144.977 8.16992 145.719 8.26793 146.415 8.46394C147.111 8.65995 147.725 8.91197 148.26 9.21999L147.461 10.8756C146.858 10.5886 146.308 10.3646 145.808 10.2071C145.309 10.046 144.802 9.96554 144.288 9.96554C143.599 9.96554 143.053 10.137 142.65 10.4836C142.246 10.8301 142.043 11.2886 142.043 11.8627C142.043 12.3177 142.175 12.6817 142.443 12.9512C142.707 13.2207 143.185 13.4308 143.874 13.5848L145.551 13.9628C146.736 14.2323 147.593 14.6803 148.118 15.3034C148.642 15.9264 148.903 16.6615 148.903 17.505H148.91Z" fill="#9DA2B3"/>
</svg>
