<svg width="162" height="25" viewBox="0 0 162 25" fill="none" xmlns="http://www.w3.org/2000/svg">
<g clip-path="url(#clip0_69_2514)">
<path d="M45.8227 4.5957C50.2628 4.5957 53.5492 7.77974 53.5492 12.1853C53.5492 16.5909 50.2583 19.6357 45.8227 19.6357C41.387 19.6357 38.168 16.5594 38.168 12.1853C38.168 7.81118 41.4588 4.5957 45.8227 4.5957ZM45.8227 17.974C49.2751 17.974 51.7219 15.6074 51.7219 12.1808C51.7219 8.75426 49.2841 6.26631 45.8227 6.26631C42.3612 6.26631 40.0087 8.74079 40.0087 12.1808C40.0087 15.6208 42.4375 17.974 45.8227 17.974Z" fill="#9DA2B3"/>
<path d="M71.6587 19.4159H69.8L59.8781 7.49258V19.4159H58.0957V4.81152H59.9544L69.8853 16.7797V4.81152H71.6587V19.4114V19.4159Z" fill="#9DA2B3"/>
<path d="M77.2305 19.4159V4.81152H87.7001V6.42375H79.0038V11.0988H86.5687V12.711H79.0038V17.8081H87.9246V19.4114H77.2305V19.4159Z" fill="#9DA2B3"/>
<path d="M98.4493 15.2753H95.0866V19.4159H91.5488V4.81152H98.4493C101.596 4.81152 104.007 6.91775 104.007 10.0479C104.007 13.178 101.601 15.2708 98.4493 15.2708V15.2753ZM95.0821 7.79347V12.2978H98.1979C99.5402 12.2978 100.38 11.2964 100.38 10.0389C100.38 8.68267 99.4998 7.79347 98.1979 7.79347H95.0821Z" fill="#9DA2B3"/>
<path d="M110.516 19.4159H106.979V4.81152H113.91C117.058 4.81152 119.468 6.94918 119.468 10.0344C119.468 11.9251 118.404 13.6271 116.856 14.5388L120.595 19.3979H116.348L113.241 15.2708H110.512V19.4114L110.516 19.4159ZM110.516 7.79347V12.2978H113.663C115.006 12.2978 115.845 11.2964 115.845 10.0389C115.845 8.68267 114.965 7.79347 113.663 7.79347H110.516Z" fill="#9DA2B3"/>
<path d="M127.01 19.4159H123.473V4.81152H127.01V19.4114V19.4159Z" fill="#9DA2B3"/>
<path d="M133.75 4.81152L138.909 10.9281L144.045 4.81152H147.035V19.4114H143.497V10.3039L139.133 15.3022H138.702L134.294 10.3039V19.4114H130.756V4.81152H133.746H133.75Z" fill="#9DA2B3"/>
<path d="M161.908 19.4159H150.783V4.81152H161.801V7.78898H154.321V10.497H160.952V13.4655H154.321V16.4429H161.908V19.4114V19.4159Z" fill="#9DA2B3"/>
<path d="M5.41572 19.5596V12.1182V7.82044C5.41572 5.4268 6.16996 4.67682 8.55841 4.67682H12.8549H20.2941L15.7866 0.167969H12.8549H9.92323L0.908203 9.18117V12.1137V15.0463V15.0553L5.41572 19.5641V19.5596Z" fill="#9DA2B3"/>
<path d="M12.8552 24.0684H15.7869L24.7974 15.0507V12.1182V9.18561L20.2944 4.67676V12.1226V16.4204C20.2944 18.8141 19.5402 19.564 17.1517 19.564H12.8552H5.41602L9.92353 24.0729H12.8552V24.0684Z" fill="#9DA2B3"/>
</g>
<defs>
<clipPath id="clip0_69_2514">
<rect width="161" height="23.9005" fill="white" transform="translate(0.908203 0.167969)"/>
</clipPath>
</defs>
</svg>
