<svg width="123" height="18" viewBox="0 0 123 18" fill="none" xmlns="http://www.w3.org/2000/svg">
<g clip-path="url(#clip0_35_18367)">
<path d="M78.0234 17.9573H82.5159L89.2647 5.78308L86.9284 1.57324L78.0234 17.9573Z" fill="black"/>
<path d="M73.3305 0.00976562L66.9894 8.1693L60.6534 0.00976562H55.9658L65.0484 11.0784L65.0609 13.1621V17.9923H68.9205V13.1621L68.938 11.0634L78.0156 0.00976562H73.3305Z" fill="black"/>
<path d="M52.0742 5.84348C52.0992 4.33014 51.5239 2.86683 50.4758 1.77372C49.3552 0.595568 47.7768 -0.0372835 46.1509 0.0452623H35.7826C34.1592 -0.027278 32.5834 0.603072 31.4577 1.77372C30.4071 2.88434 29.8318 4.36016 29.8593 5.88851V12.142C29.8468 13.6603 30.4222 15.1261 31.4702 16.2268C32.5809 17.4124 34.1567 18.0528 35.7801 17.9777H46.1459C47.7718 18.0628 49.3502 17.4199 50.4558 16.2268C51.4914 15.1411 52.0692 13.6953 52.0667 12.1945L52.0742 5.84348ZM48.1995 11.3465C48.2421 12.2145 47.9069 13.06 47.2815 13.6628C46.6562 14.2482 45.8282 14.5633 44.9727 14.5408H36.9858C36.1328 14.5608 35.3049 14.2457 34.682 13.6628C34.0642 13.0725 33.7315 12.2445 33.7665 11.3916V6.57389C33.754 5.71091 34.0792 4.87795 34.672 4.2526C35.2899 3.65477 36.1253 3.33459 36.9858 3.36461H44.9677C46.6637 3.27706 48.1095 4.57778 48.197 6.27372C48.202 6.37128 48.202 6.46883 48.197 6.56639V11.3465H48.1995Z" fill="black"/>
<path d="M25.4946 17.9919L19.2837 11.776L18.6208 11.1106H20.6769C22.1227 11.1631 23.516 10.5603 24.4715 9.47218C25.4571 8.39909 25.9924 6.99081 25.9724 5.535C25.9949 4.0942 25.4571 2.70342 24.4715 1.65284C23.496 0.574741 22.0902 -0.0130852 20.6394 0.0494495H10.9365V3.43883H19.914C20.5294 3.42132 21.1222 3.68147 21.5274 4.14673C22.3379 5.09225 22.3304 6.49053 21.5099 7.42605C21.0972 7.89631 20.4968 8.15896 19.8715 8.14895H11.1967L20.2467 17.9919H25.4946Z" fill="black"/>
<path d="M109.982 0.0480915H106.109V17.9931H122.518V14.5461H109.982V0.0380859V0.0480915Z" fill="black"/>
<path d="M97.7273 17.9475H102.21L92.4544 0H87.7793L97.7273 17.9475Z" fill="#FFB800"/>
<path d="M4.15491 12.2967C4.92784 12.2692 5.67826 12.5544 6.23607 13.0897C7.32667 14.2453 7.32667 16.0538 6.23607 17.2095C5.67575 17.7398 4.92534 18.0249 4.15491 17.9974H2.90421C2.13379 18.0224 1.38587 17.7398 0.825559 17.212C0.272752 16.6767 -0.0274145 15.9313 0.000100808 15.1633C-0.0299159 14.3879 0.270251 13.6375 0.823058 13.0947C1.38087 12.5594 2.12878 12.2717 2.90171 12.2967H4.15241H4.15491ZM2.90421 13.6625C2.43395 13.6425 1.9737 13.7826 1.59349 14.0602C1.2583 14.3254 1.0707 14.7356 1.09321 15.1633C1.0707 15.5836 1.2583 15.9888 1.59349 16.2439C1.9762 16.5166 2.43645 16.6517 2.90421 16.6317H4.15491C4.62767 16.6517 5.09293 16.5166 5.47814 16.2439C5.81333 15.9838 6.00094 15.5761 5.97842 15.1533C6.00094 14.7281 5.81333 14.3179 5.47814 14.0552C5.09293 13.7801 4.62767 13.64 4.15491 13.6625H2.90421Z" fill="#FFB800"/>
<path d="M6.94415 5.69043V7.06119L2.33659 9.81272V9.84024H6.93915V11.211H0.110352V9.84024L4.71541 7.08871V7.06119H0.110352V5.69043H6.94415Z" fill="#FFB800"/>
<path d="M3.94248 0.524949V3.05886H5.90607V0.0571889H6.95665V4.43962H0.110352V0.0546875H1.16844V3.05636H2.88439V0.524949H3.94248Z" fill="#FFB800"/>
</g>
<defs>
<clipPath id="clip0_35_18367">
<rect width="122.518" height="18" fill="white"/>
</clipPath>
</defs>
</svg>
