<svg width="123" height="18" viewBox="0 0 123 18" fill="none" xmlns="http://www.w3.org/2000/svg">
<g clip-path="url(#clip0_61_4817)">
<path d="M78.0234 17.9573H82.5159L89.2647 5.78308L86.9284 1.57324L78.0234 17.9573Z" fill="white"/>
<path d="M73.3314 0.00976562L66.9904 8.1693L60.6544 0.00976562H55.9668L65.0493 11.0784L65.0619 13.1621V17.9923H68.9215V13.1621L68.939 11.0634L78.0166 0.00976562H73.3314Z" fill="white"/>
<path d="M52.0732 5.84348C52.0982 4.33014 51.5229 2.86683 50.4748 1.77372C49.3542 0.595568 47.7758 -0.0372835 46.1499 0.0452623H35.7817C34.1583 -0.027278 32.5824 0.603072 31.4568 1.77372C30.4062 2.88434 29.8309 4.36016 29.8584 5.88851V12.142C29.8459 13.6603 30.4212 15.1261 31.4693 16.2268C32.5799 17.4124 34.1558 18.0528 35.7792 17.9777H46.1449C47.7708 18.0628 49.3492 17.4199 50.4548 16.2268C51.4904 15.1411 52.0682 13.6953 52.0657 12.1945L52.0732 5.84348ZM48.1986 11.3465C48.2411 12.2145 47.9059 13.06 47.2805 13.6628C46.6552 14.2482 45.8272 14.5633 44.9718 14.5408H36.9848C36.1318 14.5608 35.3039 14.2457 34.681 13.6628C34.0632 13.0725 33.7305 12.2445 33.7655 11.3916V6.57389C33.753 5.71091 34.0782 4.87795 34.671 4.2526C35.2889 3.65477 36.1243 3.33459 36.9848 3.36461H44.9668C46.6627 3.27706 48.1085 4.57778 48.196 6.27372C48.2011 6.37128 48.2011 6.46883 48.196 6.56639V11.3465H48.1986Z" fill="white"/>
<path d="M25.4936 17.9919L19.2827 11.776L18.6198 11.1106H20.676C22.1218 11.1631 23.515 10.5603 24.4706 9.47218C25.4561 8.39909 25.9914 6.99081 25.9714 5.535C25.9939 4.0942 25.4561 2.70342 24.4706 1.65284C23.495 0.574741 22.0892 -0.0130852 20.6384 0.0494495H10.9355V3.43883H19.913C20.5284 3.42132 21.1212 3.68147 21.5264 4.14673C22.3369 5.09225 22.3294 6.49053 21.5089 7.42605C21.0962 7.89631 20.4959 8.15896 19.8705 8.14895H11.1957L20.2457 17.9919H25.4936Z" fill="white"/>
<path d="M109.982 0.0480915H106.109V17.9931H122.518V14.5461H109.982V0.0380859V0.0480915Z" fill="white"/>
<path d="M97.7273 17.9475H102.21L92.4544 0H87.7793L97.7273 17.9475Z" fill="#FFB800"/>
<path d="M4.15491 12.2967C4.92784 12.2692 5.67826 12.5544 6.23607 13.0897C7.32667 14.2453 7.32667 16.0538 6.23607 17.2095C5.67575 17.7398 4.92534 18.0249 4.15491 17.9974H2.90421C2.13379 18.0224 1.38587 17.7398 0.825559 17.212C0.272752 16.6767 -0.0274145 15.9313 0.000100808 15.1633C-0.0299159 14.3879 0.270251 13.6375 0.823058 13.0947C1.38087 12.5594 2.12878 12.2717 2.90171 12.2967H4.15241H4.15491ZM2.90421 13.6625C2.43395 13.6425 1.9737 13.7826 1.59349 14.0602C1.2583 14.3254 1.0707 14.7356 1.09321 15.1633C1.0707 15.5836 1.2583 15.9888 1.59349 16.2439C1.9762 16.5166 2.43645 16.6517 2.90421 16.6317H4.15491C4.62767 16.6517 5.09293 16.5166 5.47814 16.2439C5.81333 15.9838 6.00094 15.5761 5.97842 15.1533C6.00094 14.7281 5.81333 14.3179 5.47814 14.0552C5.09293 13.7801 4.62767 13.64 4.15491 13.6625H2.90421Z" fill="#FFB800"/>
<path d="M6.94317 5.69043V7.06119L2.33561 9.81272V9.84024H6.93817V11.211H0.109375V9.84024L4.71443 7.08871V7.06119H0.109375V5.69043H6.94317Z" fill="#FFB800"/>
<path d="M3.9415 0.524949V3.05886H5.90509V0.0571889H6.95568V4.43962H0.109375V0.0546875H1.16746V3.05636H2.88342V0.524949H3.9415Z" fill="#FFB800"/>
</g>
<defs>
<clipPath id="clip0_61_4817">
<rect width="122.518" height="18" fill="white"/>
</clipPath>
</defs>
</svg>
