<svg width="24" height="24" viewBox="0 0 24 24" fill="none" xmlns="http://www.w3.org/2000/svg">
<path d="M9.08502 9.00225C9.32013 8.33392 9.78417 7.77035 10.395 7.41138C11.0058 7.05241 11.7239 6.92119 12.4222 7.04096C13.1205 7.16073 13.7538 7.52377 14.2101 8.06578C14.6664 8.60778 14.9161 9.29377 14.915 10.0022C14.915 12.0022 11.915 13.0022 11.915 13.0022M11.9951 17.0022H12.0051M22 12C22 17.5228 17.5228 22 12 22C6.47715 22 2 17.5228 2 12C2 6.47715 6.47715 2 12 2C17.5228 2 22 6.47715 22 12Z" stroke="#FCC001" stroke-width="2" stroke-linecap="round" stroke-linejoin="round"/>
</svg>
