<svg width="24" height="24" viewBox="0 0 24 24" fill="none" xmlns="http://www.w3.org/2000/svg">
<path d="M2 22L1.0149 21.828C0.958852 22.149 1.06274 22.4772 1.29331 22.7075C1.52387 22.9378 1.85219 23.0413 2.17315 22.9849L2 22ZM2.98825 16.3399L3.97335 16.5119C4.00957 16.3044 3.97937 16.0908 3.88707 15.9015L2.98825 16.3399ZM7.64977 21.0067L8.09226 20.11C7.90163 20.0159 7.68599 19.985 7.47662 20.0218L7.64977 21.0067ZM12 11C11.4477 11 11 11.4477 11 12C11 12.5523 11.4477 13 12 13V11ZM12.01 13C12.5623 13 13.01 12.5523 13.01 12C13.01 11.4477 12.5623 11 12.01 11V13ZM16 11C15.4477 11 15 11.4477 15 12C15 12.5523 15.4477 13 16 13V11ZM16.01 13C16.5623 13 17.01 12.5523 17.01 12C17.01 11.4477 16.5623 11 16.01 11V13ZM8 11C7.44772 11 7 11.4477 7 12C7 12.5523 7.44772 13 8 13V11ZM8.01 13C8.56228 13 9.01 12.5523 9.01 12C9.01 11.4477 8.56228 11 8.01 11V13ZM22 12H21C21 16.9706 16.9706 21 12 21V22V23C18.0751 23 23 18.0751 23 12H22ZM2 12H3C3 7.02944 7.02944 3 12 3V2V1C5.92487 1 1 5.92487 1 12H2ZM12 2V3C16.9706 3 21 7.02944 21 12H22H23C23 5.92487 18.0751 1 12 1V2ZM2 22L2.9851 22.172L3.97335 16.5119L2.98825 16.3399L2.00315 16.1679L1.0149 21.828L2 22ZM2 22L2.17315 22.9849L7.82292 21.9916L7.64977 21.0067L7.47662 20.0218L1.82685 21.0151L2 22ZM2.98825 16.3399L3.88707 15.9015C3.3093 14.7168 3 13.419 3 12H2H1C1 13.7209 1.37767 15.3186 2.08943 16.7782L2.98825 16.3399ZM12 22V21C10.5626 21 9.28323 20.6976 8.09226 20.11L7.64977 21.0067L7.20728 21.9035C8.68139 22.6309 10.2646 23 12 23V22ZM12 12V13H12.01V12V11H12V12ZM16 12V13H16.01V12V11H16V12ZM8 12V13H8.01V12V11H8V12Z" fill="#FCC001"/>
</svg>
