<svg width="24" height="24" viewBox="0 0 24 24" fill="none" xmlns="http://www.w3.org/2000/svg">
<path d="M5 10.0035V16.0146C5 16.3736 5 16.5531 5.05465 16.7115C5.10299 16.8516 5.18187 16.9793 5.28558 17.0852C5.40287 17.2049 5.5634 17.2852 5.88446 17.4457L11.2845 20.1457C11.5468 20.2769 11.678 20.3425 11.8156 20.3683C11.9375 20.3912 12.0625 20.3912 12.1844 20.3683C12.322 20.3425 12.4532 20.2769 12.7155 20.1457L18.1155 17.4457C18.4366 17.2852 18.5971 17.2049 18.7144 17.0852C18.8181 16.9793 18.897 16.8516 18.9453 16.7115C19 16.5531 19 16.3736 19 16.0146V10.0035M2 8.50348L11.6422 3.68237C11.7734 3.61678 11.839 3.58398 11.9078 3.57107C11.9687 3.55964 12.0313 3.55964 12.0922 3.57107C12.161 3.58398 12.2266 3.61678 12.3578 3.68237L22 8.50348L12.3578 13.3246C12.2266 13.3902 12.161 13.423 12.0922 13.4359C12.0313 13.4473 11.9687 13.4473 11.9078 13.4359C11.839 13.423 11.7734 13.3902 11.6422 13.3246L2 8.50348Z" stroke="#FCC001" stroke-width="2" stroke-linecap="round" stroke-linejoin="round"/>
</svg>
