<svg width="24" height="24" viewBox="0 0 24 24" fill="none" xmlns="http://www.w3.org/2000/svg">
<path d="M3.92078 20.6841C4.05103 19.8525 4.5686 18.7742 5.17126 18.1716C5.9214 17.4214 6.93882 17 7.99968 17H15.9997C17.0605 17 18.078 17.4214 18.8281 18.1716C19.2312 18.5746 19.5393 19.0549 19.7382 19.5775C19.836 19.8345 19.9568 20.4591 20 20.7324M5 3H19C20.1046 3 21 3.89543 21 5V19C21 20.1046 20.1046 21 19 21H5C3.89543 21 3 20.1046 3 19V5C3 3.89543 3.89543 3 5 3ZM16 10C16 12.2091 14.2091 14 12 14C9.79086 14 8 12.2091 8 10C8 7.79086 9.79086 6 12 6C14.2091 6 16 7.79086 16 10Z" stroke="#FCC001" stroke-width="2" stroke-linecap="round" stroke-linejoin="round"/>
</svg>
