<svg width="24" height="24" viewBox="0 0 24 24" fill="none" xmlns="http://www.w3.org/2000/svg">
<path d="M5.9 12C6.70427 11.9999 7.49664 11.8057 8.20987 11.4341C8.9231 11.0624 9.53615 10.5241 9.997 9.865L10.507 9.135C10.9679 8.47572 11.5812 7.93739 12.2946 7.56571C13.008 7.19402 13.8006 6.99996 14.605 7H21M5.9 12H3M5.9 12C6.70427 12.0001 7.49664 12.1943 8.20987 12.5659C8.9231 12.9376 9.53615 13.4759 9.997 14.135L10.507 14.865C10.9679 15.5243 11.5812 16.0626 12.2946 16.4343C13.008 16.806 13.8006 17 14.605 17H21M21 7L18 4M21 7L18 10M21 17L18 20M21 17L18 14" stroke="#FCC001" stroke-width="2" stroke-linecap="round" stroke-linejoin="round"/>
</svg>
