<svg width="24" height="24" viewBox="0 0 24 24" fill="none" xmlns="http://www.w3.org/2000/svg">
<path d="M9 3H4C3.44772 3 3 3.44772 3 4V8C3 8.55228 3.44772 9 4 9H9C9.55228 9 10 8.55228 10 8V4C10 3.44772 9.55228 3 9 3Z" stroke="#FCC001" stroke-width="2" stroke-linecap="round" stroke-linejoin="round"/>
<path d="M20 3H15C14.4477 3 14 3.44772 14 4V10C14 10.5523 14.4477 11 15 11H20C20.5523 11 21 10.5523 21 10V4C21 3.44772 20.5523 3 20 3Z" stroke="#FCC001" stroke-width="2" stroke-linecap="round" stroke-linejoin="round"/>
<path d="M20 15H15C14.4477 15 14 15.4477 14 16V20C14 20.5523 14.4477 21 15 21H20C20.5523 21 21 20.5523 21 20V16C21 15.4477 20.5523 15 20 15Z" stroke="#FCC001" stroke-width="2" stroke-linecap="round" stroke-linejoin="round"/>
<path d="M9 13H4C3.44772 13 3 13.4477 3 14V20C3 20.5523 3.44772 21 4 21H9C9.55228 21 10 20.5523 10 20V14C10 13.4477 9.55228 13 9 13Z" stroke="#FCC001" stroke-width="2" stroke-linecap="round" stroke-linejoin="round"/>
</svg>
