<svg width="24" height="24" viewBox="0 0 24 24" fill="none" xmlns="http://www.w3.org/2000/svg">
<path d="M21.7071 18.7071C22.0976 18.3166 22.0976 17.6834 21.7071 17.2929C21.3166 16.9024 20.6834 16.9024 20.2929 17.2929L21.7071 18.7071ZM18 21L17.2929 21.7071C17.4804 21.8946 17.7348 22 18 22C18.2652 22 18.5196 21.8946 18.7071 21.7071L18 21ZM15.7071 17.2929C15.3166 16.9024 14.6834 16.9024 14.2929 17.2929C13.9024 17.6834 13.9024 18.3166 14.2929 18.7071L15.7071 17.2929ZM9 5C8.44772 5 8 5.44772 8 6C8 6.55228 8.44772 7 9 7V5ZM7 9C7 8.44772 6.55228 8 6 8C5.44772 8 5 8.44772 5 9H7ZM21 6H20C20 7.10457 19.1046 8 18 8V9V10C20.2091 10 22 8.20914 22 6H21ZM18 9V8C16.8954 8 16 7.10457 16 6H15H14C14 8.20914 15.7909 10 18 10V9ZM15 6H16C16 4.89543 16.8954 4 18 4V3V2C15.7909 2 14 3.79086 14 6H15ZM18 3V4C19.1046 4 20 4.89543 20 6H21H22C22 3.79086 20.2091 2 18 2V3ZM9 18H8C8 19.1046 7.10457 20 6 20V21V22C8.20914 22 10 20.2091 10 18H9ZM6 21V20C4.89543 20 4 19.1046 4 18H3H2C2 20.2091 3.79086 22 6 22V21ZM3 18H4C4 16.8954 4.89543 16 6 16V15V14C3.79086 14 2 15.7909 2 18H3ZM6 15V16C7.10457 16 8 16.8954 8 18H9H10C10 15.7909 8.20914 14 6 14V15ZM21 18L20.2929 17.2929L17.2929 20.2929L18 21L18.7071 21.7071L21.7071 18.7071L21 18ZM18 21L18.7071 20.2929L15.7071 17.2929L15 18L14.2929 18.7071L17.2929 21.7071L18 21ZM18 21L19 21L19 9L18 9L17 9L17 21L18 21ZM4 3V4H8V3V2H4V3ZM9 4H8V8H9H10V4H9ZM8 9V8H4V9V10H8V9ZM3 8H4V4H3H2V8H3ZM4 9V8H4H3H2C2 9.10457 2.89543 10 4 10V9ZM9 8H8V9V10C9.10457 10 10 9.10457 10 8H9ZM8 3V4H9H10C10 2.89543 9.10457 2 8 2V3ZM4 3V2C2.89543 2 2 2.89543 2 4H3H4V4V3ZM9 6V7H15V6V5H9V6ZM6 9H5V15H6H7V9H6Z" fill="#FCC001"/>
</svg>
