<svg width="24" height="24" viewBox="0 0 24 24" fill="none" xmlns="http://www.w3.org/2000/svg">
<path d="M2 7.73333C2 9.7952 5.58172 11.4667 10 11.4667C10.6906 11.4667 11.3608 11.4258 12 11.3491M2 7.73333C2 5.67147 5.58172 4 10 4C14.4183 4 18 5.67147 18 7.73333C18 8.07694 17.9005 8.4097 17.7143 8.7257C17.6424 8.84761 17.5577 8.96704 17.4607 9.08362M2 7.73333V12M2 12C2 14.0619 5.58172 15.7333 10 15.7333C10.3837 15.7333 10.7612 15.7207 11.1305 15.6963M2 12V16.2667C2 18.3285 5.58172 20 10 20C11.4903 20 12.8853 19.8098 14.0799 19.4787M11.1305 15.6963C11.6767 18.1587 13.8733 20 16.5 20C19.5376 20 22 17.5376 22 14.5C22 11.7902 20.0402 9.53804 17.4607 9.08362M11.1305 15.6963C11.0451 15.3112 11 14.9109 11 14.5C11 11.4624 13.4624 9 16.5 9C16.8277 9 17.1487 9.02866 17.4607 9.08362" stroke="#FCC001" stroke-width="2" stroke-linecap="round"/>
</svg>
