<svg width="24" height="24" viewBox="0 0 24 24" fill="none" xmlns="http://www.w3.org/2000/svg">
<path d="M9 2C9 1.44772 8.55228 1 8 1C7.44772 1 7 1.44772 7 2H9ZM7 6C7 6.55228 7.44772 7 8 7C8.55228 7 9 6.55228 9 6H7ZM17 2C17 1.44772 16.5523 1 16 1C15.4477 1 15 1.44772 15 2H17ZM15 6C15 6.55228 15.4477 7 16 7C16.5523 7 17 6.55228 17 6H15ZM6 4V5H18V4V3H6V4ZM21 7H20V19H21H22V7H21ZM18 22V21H6V22V23H18V22ZM3 19H4V7H3H2V19H3ZM6 22V21C4.89543 21 4 20.1046 4 19H3H2C2 21.2091 3.79086 23 6 23V22ZM21 19H20C20 20.1046 19.1046 21 18 21V22V23C20.2091 23 22 21.2091 22 19H21ZM18 4V5C19.1046 5 20 5.89543 20 7H21H22C22 4.79086 20.2091 3 18 3V4ZM6 4V3C3.79086 3 2 4.79086 2 7H3H4C4 5.89543 4.89543 5 6 5V4ZM3 10V11H21V10V9H3V10ZM8 2H7V6H8H9V2H8ZM16 2H15V6H16H17V2H16ZM11 16H10C10 16.5304 10.2107 17.0391 10.5858 17.4142L11.2929 16.7071L12 16L12 16H11ZM11.2929 16.7071L10.5858 17.4142C10.9609 17.7893 11.4696 18 12 18V17V16L12 16L11.2929 16.7071ZM12 17V18C12.5304 18 13.0391 17.7893 13.4142 17.4142L12.7071 16.7071L12 16L12 16V17ZM12.7071 16.7071L13.4142 17.4142C13.7893 17.0391 14 16.5304 14 16H13H12L12 16L12.7071 16.7071ZM13 16H14C14 15.4696 13.7893 14.9609 13.4142 14.5858L12.7071 15.2929L12 16L12 16H13ZM12.7071 15.2929L13.4142 14.5858C13.0391 14.2107 12.5304 14 12 14V15V16L12 16L12.7071 15.2929ZM12 15V14C11.4696 14 10.9609 14.2107 10.5858 14.5858L11.2929 15.2929L12 16L12 16V15ZM11.2929 15.2929L10.5858 14.5858C10.2107 14.9609 10 15.4696 10 16H11H12L12 16L11.2929 15.2929Z" fill="#FCC001"/>
</svg>
