<svg width="24" height="24" viewBox="0 0 24 24" fill="none" xmlns="http://www.w3.org/2000/svg">
<path d="M4.63226 18.7615C4.75893 18.5845 5.01543 18.3275 5.17133 18.1716C5.92147 17.4214 6.93889 17 7.99975 17H15.9998C17.0606 17 18.078 17.4214 18.8282 18.1716C18.9989 18.3423 19.2151 18.5843 19.3506 18.78M22 12C22 17.5228 17.5228 22 12 22C6.47715 22 2 17.5228 2 12C2 6.47715 6.47715 2 12 2C17.5228 2 22 6.47715 22 12ZM16 10C16 12.2091 14.2091 14 12 14C9.79086 14 8 12.2091 8 10C8 7.79086 9.79086 6 12 6C14.2091 6 16 7.79086 16 10Z" stroke="#FCC001" stroke-width="2" stroke-linecap="round" stroke-linejoin="round"/>
</svg>
