<svg width="24" height="24" viewBox="0 0 24 24" fill="none" xmlns="http://www.w3.org/2000/svg">
<path d="M16 3.38462V2M19.6306 4.36369L20.6081 3.38462M20.6176 8H22" stroke="#FCC001" stroke-width="2" stroke-linecap="round" stroke-linejoin="round"/>
<path d="M22 12C22 17.5228 17.5228 22 12 22C6.47715 22 2 17.5228 2 12C2 6.47715 6.47715 2 12 2" stroke="#FCC001" stroke-width="2" stroke-linecap="round" stroke-linejoin="round"/>
<path d="M12 7C11.4477 7 11 7.44772 11 8C11 8.55228 11.4477 9 12 9V7ZM15 11.9704C15 12.5227 15.4477 12.9704 16 12.9704C16.5523 12.9704 17 12.5227 17 11.9704H15ZM12 8V9H14V8V7H12V8ZM16 9.98519H15V11.9704H16H17V9.98519H16ZM14 8V9C14.4995 9 14.7742 9.00209 14.965 9.02755C15.1278 9.04928 15.0732 9.07054 15.0026 9.00045L15.7071 8.29072L16.4116 7.58099C16.0481 7.22019 15.6114 7.09609 15.2296 7.04513C14.8757 6.99791 14.4433 7 14 7V8ZM16 9.98519H17C17 9.54575 17.0022 9.11483 16.9543 8.76182C16.9025 8.37927 16.7761 7.94282 16.4116 7.58099L15.7071 8.29072L15.0026 9.00045C14.931 8.92935 14.951 8.87222 14.9724 9.03027C14.9978 9.21785 15 9.4888 15 9.98519H16ZM15.7071 8.29072L14.9529 7.63408C12.1241 10.8831 8.9095 12.1953 6.40488 12.7031C5.1487 12.9577 4.07068 13.0097 3.31253 12.9986C2.93393 12.9931 2.63664 12.9719 2.43868 12.9529C2.33975 12.9434 2.26581 12.9344 2.2191 12.9282C2.19575 12.9251 2.17923 12.9227 2.16982 12.9213C2.16512 12.9206 2.1622 12.9202 2.16109 12.92C2.16053 12.9199 2.16043 12.9199 2.16079 12.92C2.16097 12.92 2.16126 12.92 2.16167 12.9201C2.16187 12.9201 2.16227 12.9202 2.16237 12.9202C2.16279 12.9203 2.16324 12.9204 2 13.907C1.83676 14.8935 1.83727 14.8936 1.83781 14.8937C1.83803 14.8937 1.8386 14.8938 1.83904 14.8939C1.83991 14.8941 1.84091 14.8942 1.84203 14.8944C1.84426 14.8948 1.84696 14.8952 1.85013 14.8957C1.85648 14.8967 1.8647 14.898 1.87476 14.8995C1.89488 14.9025 1.92237 14.9064 1.95694 14.911C2.02606 14.9201 2.12355 14.9318 2.24709 14.9437C2.49405 14.9675 2.84575 14.9921 3.28344 14.9984C4.15787 15.0111 5.38163 14.9512 6.80223 14.6632C9.65116 14.0857 13.2901 12.5898 16.4613 8.94737L15.7071 8.29072Z" fill="#FCC001"/>
</svg>
