<svg width="24" height="24" viewBox="0 0 24 24" fill="none" xmlns="http://www.w3.org/2000/svg">
<path d="M2 17H22M7 10L10 7M14 7L17 10M4 21H20C21.1046 21 22 20.1046 22 19V9C22 7.89543 21.1046 7 20 7H4C2.89543 7 2 7.89543 2 9V19C2 20.1046 2.89543 21 4 21ZM11 5C11 6.10457 10.1046 7 9 7C7.89543 7 7 6.10457 7 5C7 3.89543 7.89543 3 9 3C10.1046 3 11 3.89543 11 5ZM17 5C17 6.10457 16.1046 7 15 7C13.8954 7 13 6.10457 13 5C13 3.89543 13.8954 3 15 3C16.1046 3 17 3.89543 17 5Z" stroke="#FCC001" stroke-width="2" stroke-linecap="round" stroke-linejoin="round"/>
</svg>
