<svg width="24" height="24" viewBox="0 0 24 24" fill="none" xmlns="http://www.w3.org/2000/svg">
<path d="M14.1792 16.3143C15.7288 15.2568 17.3151 14.0638 18.3112 13.0678C19.7132 11.6658 20.6477 9.89501 21.2134 8.00118C21.7791 6.08279 22.0005 4.01683 22.0005 2C17.9669 2 13.7489 2.87309 10.9327 5.68926C9.93658 6.68535 8.74367 8.27175 7.6861 9.82123M14.1792 16.3143C11.9042 17.9007 9.70293 19.2165 9.70293 19.2165M14.1792 16.3143C15.4954 17.6305 15.2503 19.8269 13.6858 20.8354C13.1129 21.2047 12.6132 21.5173 12.2355 21.7496L9.70293 19.2165M9.70293 19.2165L4.78393 14.2975M4.78393 14.2975C4.78393 14.2975 6.09975 12.0963 7.6861 9.82123M4.78393 14.2975L2.25004 11.7643C2.48247 11.3866 2.79495 10.8869 3.16426 10.314C4.17273 8.74954 6.36993 8.50505 7.6861 9.82123M15.5536 2.9322L21.071 8.44956M3.55374 17.9868C3.33009 18.2104 3.18009 18.4799 3.1037 18.7649L2 22L5.23509 20.8963C5.52013 20.82 5.78957 20.67 6.01322 20.4463C6.6924 19.7671 6.6924 18.6659 6.01322 17.9867C5.33405 17.3076 4.23292 17.3076 3.55374 17.9868ZM15.131 10.6084C15.131 11.5688 14.3523 12.3475 13.3918 12.3475C12.4313 12.3475 11.6527 11.5688 11.6527 10.6084C11.6527 9.64786 12.4313 8.86922 13.3918 8.86922C14.3523 8.86922 15.131 9.64786 15.131 10.6084Z" stroke="#FCC001" stroke-width="2" stroke-miterlimit="10"/>
</svg>
