<svg width="24" height="24" viewBox="0 0 24 24" fill="none" xmlns="http://www.w3.org/2000/svg">
<path d="M7 12H11M9 10V14M3.86667 6H14.1333C15.1643 6 16 6.76751 16 7.71429V16.2857C16 17.2325 15.1643 18 14.1333 18H3.86667C2.83574 18 2 17.2325 2 16.2857V7.71429C2 6.76751 2.83574 6 3.86667 6ZM16 9.99963L20.553 7.72363C20.7054 7.64747 20.8748 7.61151 21.045 7.61918C21.2152 7.62684 21.3806 7.67788 21.5256 7.76744C21.6706 7.85699 21.7902 7.98211 21.8733 8.1309C21.9563 8.2797 21.9999 8.44724 22 8.61763V15.3816C21.9999 15.552 21.9563 15.7196 21.8733 15.8684C21.7902 16.0172 21.6706 16.1423 21.5256 16.2318C21.3806 16.3214 21.2152 16.3724 21.045 16.3801C20.8748 16.3878 20.7054 16.3518 20.553 16.2756L16 13.9996V9.99963Z" stroke="#FCC001" stroke-width="2" stroke-linecap="round" stroke-linejoin="round"/>
</svg>
