<svg width="24" height="24" viewBox="0 0 24 24" fill="none" xmlns="http://www.w3.org/2000/svg">
<path d="M20 12C20 12.5523 20.4477 13 21 13C21.5523 13 22 12.5523 22 12H20ZM9 2C9 1.44772 8.55228 1 8 1C7.44772 1 7 1.44772 7 2H9ZM7 6C7 6.55228 7.44772 7 8 7C8.55228 7 9 6.55228 9 6H7ZM17 2C17 1.44772 16.5523 1 16 1C15.4477 1 15 1.44772 15 2H17ZM15 6C15 6.55228 15.4477 7 16 7C16.5523 7 17 6.55228 17 6H15ZM11 23C11.5523 23 12 22.5523 12 22C12 21.4477 11.5523 21 11 21V23ZM21.7071 16.7071C22.0976 16.3166 22.0976 15.6834 21.7071 15.2929C21.3166 14.9024 20.6834 14.9024 20.2929 15.2929L21.7071 16.7071ZM16 21L15.2929 21.7071C15.6834 22.0976 16.3166 22.0976 16.7071 21.7071L16 21ZM14.7071 18.2929C14.3166 17.9024 13.6834 17.9024 13.2929 18.2929C12.9024 18.6834 12.9024 19.3166 13.2929 19.7071L14.7071 18.2929ZM6 4V5H8V4V3H6V4ZM8 4V5H16V4V3H8V4ZM16 4V5H18V4V3H16V4ZM21 7H20V10H21H22V7H21ZM21 10H20V12H21H22V10H21ZM3 19H4V10H3H2V19H3ZM3 10H4V7H3H2V10H3ZM6 22V21C4.89543 21 4 20.1046 4 19H3H2C2 21.2091 3.79086 23 6 23V22ZM18 4V5C19.1046 5 20 5.89543 20 7H21H22C22 4.79086 20.2091 3 18 3V4ZM6 4V3C3.79086 3 2 4.79086 2 7H3H4C4 5.89543 4.89543 5 6 5V4ZM3 10V11H21V10V9H3V10ZM8 2H7V4H8H9V2H8ZM8 4H7V6H8H9V4H8ZM16 2H15V4H16H17V2H16ZM16 4H15V6H16H17V4H16ZM11 22V21H6V22V23H11V22ZM21 16L20.2929 15.2929L15.2929 20.2929L16 21L16.7071 21.7071L21.7071 16.7071L21 16ZM16 21L16.7071 20.2929L14.7071 18.2929L14 19L13.2929 19.7071L15.2929 21.7071L16 21Z" fill="#FCC001"/>
</svg>
