<svg width="24" height="24" viewBox="0 0 24 24" fill="none" xmlns="http://www.w3.org/2000/svg">
<path d="M5 19V21M5 19C3.89543 19 3 18.1046 3 17V16C3 14.8954 3.89543 14 5 14M5 19C6.10457 19 7 18.1046 7 17V16C7 14.8954 6.10457 14 5 14M5 14V10M12 15V18M12 15C10.8954 15 10 14.1046 10 13V12C10 10.8954 10.8954 10 12 10M12 15C13.1046 15 14 14.1046 14 13V12C14 10.8954 13.1046 10 12 10M12 10V7M19 11V15M19 11C17.8954 11 17 10.1046 17 9V8C17 6.89543 17.8954 6 19 6M19 11C20.1046 11 21 10.1046 21 9V8C21 6.89543 20.1046 6 19 6M19 6V3" stroke="#FCC001" stroke-width="2" stroke-linecap="round"/>
</svg>
