<svg width="24" height="24" viewBox="0 0 24 24" fill="none" xmlns="http://www.w3.org/2000/svg">
<g clip-path="url(#clip0_620_8237)">
<path d="M7.22744 8.18738C7.12344 8.08337 6.95544 8.08337 6.85144 8.18738C6.74744 8.29138 6.74744 8.45938 6.85144 8.56604L9.2621 10.9794C9.31544 11.0327 9.3821 11.0567 9.45144 11.0567C9.52077 11.0567 9.58744 11.03 9.64077 10.9794C9.74477 10.8754 9.74477 10.7074 9.64077 10.6007L7.2301 8.18738H7.22744Z" fill="#333333"/>
<path d="M8.58571 18.3448V15.2888C8.58571 14.6675 8.36171 14.1288 7.92171 13.6862C7.49504 13.2595 6.97504 13.0355 6.36971 13.0222H2.77504L5.90571 9.8915C6.00971 9.7875 6.00971 9.6195 5.90571 9.5155C5.80171 9.4115 5.63371 9.4115 5.52971 9.5155L1.94571 13.0995C1.94571 13.0995 1.93771 13.1075 1.93237 13.1128C1.89504 13.1555 1.87371 13.2035 1.86837 13.2568C1.86837 13.2755 1.86571 13.2915 1.86837 13.3102C1.87371 13.3715 1.89771 13.4302 1.94304 13.4782H1.94037L5.52704 17.0648C5.63104 17.1688 5.79904 17.1688 5.90304 17.0648C6.00704 16.9608 6.00704 16.7928 5.90304 16.6888L2.77237 13.5582H6.35904C6.82304 13.5688 7.20971 13.7342 7.54037 14.0675C7.87104 14.4008 8.04971 14.8115 8.04971 15.2915V18.3448C7.81237 18.3928 7.60437 18.5048 7.42571 18.6835C7.18037 18.9262 7.05504 19.2275 7.05237 19.5768C7.05237 19.9235 7.18037 20.2222 7.42571 20.4675C7.67104 20.7155 7.97237 20.8408 8.31904 20.8435H8.32437C8.67104 20.8435 8.96971 20.7208 9.21771 20.4755C9.45771 20.2302 9.57771 19.9288 9.57504 19.5822C9.57504 19.2328 9.44971 18.9315 9.20437 18.6835C9.02571 18.5048 8.81771 18.3928 8.58304 18.3448H8.58571ZM8.84437 20.0995C8.70304 20.2408 8.53237 20.3102 8.32971 20.3102H8.32704C8.12437 20.3102 7.95371 20.2382 7.80704 20.0915C7.66037 19.9475 7.59104 19.7795 7.58837 19.5795C7.58837 19.3742 7.66037 19.2062 7.80437 19.0648C7.94571 18.9235 8.11104 18.8568 8.31637 18.8568C8.31637 18.8568 8.31637 18.8568 8.31904 18.8568C8.52437 18.8488 8.68704 18.9235 8.82837 19.0648C8.97237 19.2115 9.04437 19.3822 9.04437 19.5902C9.04437 19.7955 8.98037 19.9635 8.84437 20.1048V20.0995Z" fill="#333333"/>
<path d="M12.2091 18.3431V4.11113L15.3397 7.24179C15.4437 7.34579 15.6117 7.34579 15.7157 7.24179C15.8197 7.13779 15.8197 6.96979 15.7157 6.86579L12.1317 3.27913C12.1077 3.25513 12.0784 3.23646 12.0491 3.22313C11.9851 3.19646 11.9051 3.19646 11.8437 3.22313C11.8144 3.23646 11.7877 3.25246 11.7637 3.27646C11.7637 3.27646 11.7611 3.27913 11.7584 3.28179L8.17175 6.86846C8.06775 6.97246 8.06775 7.14046 8.17175 7.24446C8.27575 7.34846 8.44375 7.34846 8.54775 7.24446L11.6784 4.11379V18.3431C11.4411 18.3911 11.2331 18.5031 11.0544 18.6818C10.8091 18.9245 10.6837 19.2258 10.6811 19.5725C10.6811 19.9218 10.8091 20.2205 11.0544 20.4658C11.2998 20.7138 11.6011 20.8391 11.9477 20.8418H11.9531C12.2997 20.8418 12.5984 20.7191 12.8464 20.4738C13.0864 20.2285 13.2064 19.9271 13.2011 19.5805C13.2011 19.2311 13.0757 18.9298 12.8304 18.6818C12.6517 18.5031 12.4437 18.3911 12.2091 18.3431ZM12.4677 20.0978C12.3264 20.2391 12.1557 20.3085 11.9531 20.3085H11.9504C11.7478 20.3085 11.5771 20.2365 11.4304 20.0898C11.2864 19.9458 11.2144 19.7778 11.2118 19.5751C11.2118 19.3725 11.2837 19.2045 11.4277 19.0605C11.5664 18.9191 11.7344 18.8525 11.9397 18.8525H11.9451C12.1451 18.8525 12.3104 18.9218 12.4491 19.0605C12.5931 19.2071 12.6651 19.3778 12.6651 19.5858C12.6651 19.7911 12.6011 19.9591 12.4651 20.1005L12.4677 20.0978Z" fill="#333333"/>
<path d="M14.6337 10.9716L17.0444 8.55823C17.1484 8.45423 17.1484 8.28623 17.0444 8.17956C16.9404 8.07556 16.7724 8.07556 16.6684 8.17956L14.2577 10.5929C14.1537 10.6969 14.1537 10.8649 14.2577 10.9716C14.311 11.0222 14.3777 11.0489 14.447 11.0489C14.5164 11.0489 14.583 11.0222 14.6364 10.9716H14.6337Z" fill="#333333"/>
<path d="M21.9527 13.0997C21.9527 13.0997 21.95 13.097 21.9473 13.0944L18.3607 9.50769C18.2567 9.40369 18.0887 9.40369 17.9847 9.50769C17.8807 9.61169 17.8807 9.77969 17.9847 9.88369L21.1153 13.0144H17.5153C16.918 13.0277 16.398 13.2517 15.9687 13.6784C15.5287 14.1184 15.3047 14.657 15.3047 15.281V18.337C15.07 18.385 14.862 18.497 14.6833 18.6757C14.438 18.9237 14.3127 19.225 14.3127 19.5717C14.3073 19.921 14.4273 20.2224 14.6727 20.4704C14.918 20.713 15.2167 20.833 15.5633 20.833H15.5687C15.9153 20.833 16.2167 20.705 16.462 20.4597C16.71 20.2144 16.8353 19.913 16.838 19.5664C16.838 19.2197 16.7127 18.9184 16.4673 18.6757C16.2887 18.497 16.078 18.3824 15.8407 18.3344V15.281C15.8407 14.7984 16.006 14.3984 16.35 14.057C16.6807 13.7264 17.0673 13.5584 17.526 13.5477H21.118L17.9873 16.6784C17.8833 16.7824 17.8833 16.9504 17.9873 17.0544C18.0913 17.1584 18.2593 17.1584 18.3633 17.0544L21.95 13.4677C21.998 13.4197 22.0273 13.353 22.0273 13.2784C22.0273 13.2037 22.0007 13.1424 21.9553 13.0944L21.9527 13.0997ZM16.086 19.057C16.23 19.1984 16.2993 19.369 16.2993 19.569C16.2993 19.7717 16.2273 19.9397 16.0807 20.0864C15.9367 20.233 15.766 20.3024 15.5633 20.305H15.5607C15.358 20.305 15.1873 20.2357 15.0487 20.0997C14.91 19.9557 14.8433 19.7877 14.8433 19.5797C14.8433 19.3744 14.9127 19.2037 15.0593 19.0597C15.2007 18.9184 15.366 18.8517 15.566 18.8517H15.5793C15.7793 18.8517 15.9473 18.921 16.086 19.0624V19.057Z" fill="#333333"/>
</g>
<defs>
<clipPath id="clip0_620_8237">
<rect width="20.16" height="17.6373" fill="white" transform="translate(1.86719 3.20312)"/>
</clipPath>
</defs>
</svg>
