<svg width="24" height="24" viewBox="0 0 24 24" fill="none" xmlns="http://www.w3.org/2000/svg">
<path d="M14.2642 18.3717C14.5804 17.407 14.7385 16.9247 15.0614 16.593C15.2149 16.4354 15.393 16.3048 15.5885 16.2066C16.0001 16 16.5001 16 17.5 16C18.4999 16 18.9999 16 19.4115 16.2066C19.607 16.3048 19.7851 16.4354 19.9386 16.593C20.2615 16.9247 20.4196 17.407 20.7358 18.3717L21.0622 19.3675C21.456 20.5688 21.6528 21.1694 21.3585 21.5847C21.0642 22 20.4416 22 19.1964 22H15.8036C14.5584 22 13.9358 22 13.6415 21.5847C13.3472 21.1694 13.544 20.5688 13.9378 19.3675L14.2642 18.3717Z" stroke="#FCC001" stroke-width="2"/>
<path d="M8.76421 10.3717C9.08041 9.40705 9.23851 8.92471 9.56143 8.59298C9.71485 8.43537 9.89299 8.3048 10.0885 8.20663C10.5001 8 11.0001 8 12 8C12.9999 8 13.4999 8 13.9115 8.20663C14.107 8.3048 14.2851 8.43537 14.4386 8.59298C14.7615 8.92471 14.9196 9.40705 15.2358 10.3717L15.5622 11.3675C15.956 12.5688 16.1528 13.1694 15.8585 13.5847C15.5642 14 14.9416 14 13.6964 14H10.3036C9.05842 14 8.43585 14 8.1415 13.5847C7.84716 13.1694 8.04404 12.5688 8.43779 11.3675L8.76421 10.3717Z" stroke="#FCC001" stroke-width="2"/>
<path d="M3.26421 18.3717C3.58041 17.407 3.73851 16.9247 4.06143 16.593C4.21485 16.4354 4.39299 16.3048 4.58853 16.2066C5.00012 16 5.50008 16 6.5 16C7.49992 16 7.99988 16 8.41147 16.2066C8.60701 16.3048 8.78515 16.4354 8.93857 16.593C9.26149 16.9247 9.41959 17.407 9.73579 18.3717L10.0622 19.3675C10.456 20.5688 10.6528 21.1694 10.3585 21.5847C10.0642 22 9.44158 22 8.19643 22H4.80357C3.55842 22 2.93585 22 2.6415 21.5847C2.34716 21.1694 2.54404 20.5688 2.93779 19.3675L3.26421 18.3717Z" stroke="#FCC001" stroke-width="2"/>
<path d="M12 2V4M7.5 3.5L9 5M16.5 3.5L15 5" stroke="#FCC001" stroke-width="2" stroke-linecap="round"/>
</svg>
