<svg width="24" height="24" viewBox="0 0 24 24" fill="none" xmlns="http://www.w3.org/2000/svg">
<g clip-path="url(#clip0_620_8269)">
<path d="M7.69781 21.3318C7.15689 21.3318 6.69091 21.1387 6.30923 20.7571C5.92755 20.3802 5.73553 19.9149 5.73553 19.3798C5.73553 19.2146 5.75192 19.0564 5.78939 18.9052C5.87135 18.5655 6.04697 18.2607 6.31157 18.0002C6.69325 17.6209 7.16158 17.4302 7.70015 17.4302H7.70483C7.9788 17.4302 8.23638 17.4814 8.47054 17.5791L9.8076 15.2781C9.58983 15.1316 9.38143 14.9594 9.18707 14.7663C9.14726 14.7291 9.10746 14.6895 9.06765 14.6476C9.06765 14.6476 9.06531 14.6453 9.06297 14.643C8.41434 13.9474 8.06544 13.1168 8.02095 12.1722H6.57617C6.527 12.7189 6.29752 13.1982 5.89476 13.5984C5.43581 14.0544 4.87382 14.2847 4.22753 14.2847C3.58125 14.2847 3.01926 14.0544 2.56031 13.5984C2.10135 13.1424 1.86719 12.584 1.86719 11.9419C1.86719 11.2998 2.09901 10.7414 2.56031 10.2854C3.01926 9.82939 3.58125 9.59673 4.22753 9.59673C4.87382 9.59673 5.43581 9.82706 5.89476 10.2854C6.29752 10.6856 6.527 11.1625 6.57617 11.7092H8.02095C8.07246 10.774 8.42136 9.95502 9.06297 9.26637C9.06297 9.26637 9.06297 9.26637 9.06531 9.26404C9.10512 9.21984 9.14726 9.17796 9.18941 9.13841C9.38611 8.94298 9.59685 8.77081 9.81697 8.62192L9.24093 7.63081C8.94354 7.76575 8.61806 7.83322 8.26916 7.83322C7.62053 7.83322 7.05855 7.60289 6.59959 7.14689C6.14063 6.69089 5.91115 6.13485 5.91115 5.4904C5.91115 5.29265 5.93457 5.09954 5.97906 4.91807C6.07507 4.51326 6.28581 4.14799 6.59959 3.83391C6.74945 3.68501 6.91337 3.55938 7.08196 3.45934C7.4332 3.25228 7.83362 3.14525 8.26916 3.14525C8.91779 3.14525 9.47977 3.37791 9.93639 3.83391C10.2525 4.14799 10.4633 4.51326 10.5616 4.91807C10.6061 5.09954 10.6272 5.29265 10.6272 5.4904C10.6272 6.13252 10.3977 6.69089 9.93873 7.14689C9.84507 7.23763 9.74906 7.32138 9.64603 7.39583L10.2221 8.38694C10.7653 8.11473 11.3695 7.97514 12.0204 7.97514C12.0204 7.97514 12.0204 7.97514 12.0228 7.97514C12.6737 7.97514 13.2755 8.11473 13.8141 8.38694L15.2495 5.91616C15.1769 5.86032 15.1067 5.79983 15.0411 5.73469C14.6594 5.35546 14.4651 4.89016 14.4651 4.3504C14.4651 3.8153 14.6571 3.34999 15.0411 2.97076C15.4228 2.59154 15.8911 2.39844 16.432 2.39844C16.9729 2.39844 17.4413 2.59154 17.8253 2.97309C18.207 3.35232 18.4037 3.8153 18.4037 4.35273C18.4037 4.89016 18.2093 5.35546 17.8253 5.73701C17.4436 6.11624 16.9753 6.31167 16.4344 6.31167C16.1557 6.31167 15.8935 6.25816 15.6546 6.15579L14.2215 8.62424C14.4417 8.77081 14.6547 8.9453 14.8538 9.14306C14.8936 9.18261 14.9357 9.22449 14.9755 9.26869C15.6148 9.95735 15.966 10.7763 16.0176 11.7116H16.9893C17.001 11.5766 17.0198 11.444 17.0502 11.3184C17.1556 10.874 17.3851 10.4738 17.7293 10.1295C18.2327 9.63163 18.8486 9.38037 19.5557 9.38037C20.2629 9.38037 20.8764 9.63163 21.3775 10.1295C21.7241 10.4738 21.9536 10.874 22.0636 11.3184C22.1104 11.5185 22.1339 11.7278 22.1315 11.9442C22.1315 12.6468 21.8786 13.2564 21.3775 13.7543C20.8787 14.2498 20.2676 14.5034 19.5604 14.5034C19.5557 14.5034 19.5534 14.5034 19.5511 14.5034C18.8439 14.5034 18.2304 14.2521 17.7293 13.7543C17.2867 13.3122 17.0362 12.7841 16.987 12.1792H16.0152C15.9684 13.1307 15.6171 13.959 14.9732 14.65C14.9732 14.65 14.9709 14.6523 14.9685 14.6546C14.9287 14.6965 14.8866 14.736 14.8444 14.7779C14.6501 14.971 14.4417 15.1432 14.2239 15.2898L14.7952 16.2692C15.095 16.1343 15.4228 16.0668 15.7717 16.0668C16.4203 16.0668 16.98 16.2995 17.4366 16.7555C17.7527 17.0696 17.9634 17.4348 18.0641 17.8396C18.1063 18.0234 18.1274 18.2142 18.1274 18.4143C18.1274 19.0564 17.8955 19.6148 17.4389 20.0685C17.2891 20.2174 17.1275 20.3453 16.9565 20.4477C16.6053 20.6524 16.2096 20.7571 15.7787 20.7571H15.7717C15.1231 20.7571 14.5611 20.5268 14.1021 20.0708C13.6432 19.6148 13.4137 19.0587 13.4137 18.4143C13.4137 18.2165 13.4348 18.0258 13.4793 17.842C13.5776 17.4348 13.7883 17.0719 14.1045 16.7578C14.1958 16.6671 14.2918 16.5833 14.3925 16.5089L13.8211 15.5294C13.2779 15.8039 12.6737 15.9435 12.0204 15.9435C11.3624 15.9435 10.7536 15.8039 10.208 15.5271L8.87095 17.8257C8.94589 17.8815 9.01613 17.9443 9.08404 18.0118C9.3463 18.2724 9.52192 18.5772 9.60622 18.9145C9.64369 19.0657 9.66242 19.2263 9.66242 19.3891C9.66242 19.9265 9.46807 20.3895 9.08404 20.7664C8.7047 21.1456 8.23638 21.3388 7.69546 21.3411L7.69781 21.3318ZM7.69781 17.8955C7.281 17.8955 6.93444 18.0374 6.6394 18.3305C6.43568 18.533 6.30455 18.7563 6.24132 19.0145C6.21322 19.1285 6.20151 19.2518 6.20151 19.3798C6.20151 19.7939 6.34435 20.1359 6.6394 20.4291C6.93444 20.7245 7.281 20.8665 7.69781 20.8665C8.11461 20.8665 8.46117 20.7222 8.75387 20.4291C9.05126 20.1359 9.1941 19.7939 9.1941 19.3798C9.1941 19.2542 9.18005 19.1285 9.15195 19.0122C9.08872 18.754 8.95994 18.5306 8.75387 18.3282C8.65553 18.2305 8.55249 18.1491 8.44244 18.0863C8.22233 17.9583 7.98114 17.8955 7.70249 17.8955C7.70249 17.8955 7.70015 17.8955 7.69781 17.8955ZM14.8257 16.7694C14.6899 16.8509 14.5587 16.9532 14.437 17.0742C14.1817 17.3278 14.0155 17.6186 13.9382 17.9374C13.9031 18.0839 13.8867 18.2398 13.8867 18.4003C13.8867 18.9238 14.067 19.3589 14.4393 19.7288C14.814 20.0987 15.2519 20.2802 15.7787 20.2802H15.7834C16.1346 20.2802 16.4414 20.2011 16.7224 20.0359C16.8582 19.9568 16.9893 19.8521 17.1111 19.7288C17.4834 19.3589 17.6661 18.9238 17.6637 18.4003C17.6637 18.2352 17.6473 18.0793 17.6145 17.935C17.5349 17.6116 17.371 17.3278 17.1134 17.0719C16.7411 16.702 16.3056 16.5205 15.7811 16.5205C15.4322 16.5205 15.1114 16.6043 14.8327 16.7671L14.8257 16.7694ZM9.56641 14.4871C9.7795 14.6918 10.0043 14.864 10.2408 15.0013C10.7021 15.2735 11.2219 15.427 11.7863 15.4596V13.51C11.5989 13.5216 11.4186 13.5449 11.2454 13.5798C10.6201 13.7124 10.0535 14.0171 9.56641 14.4871ZM12.2546 13.51V15.4596C12.8166 15.427 13.3341 15.2735 13.793 15.0036C14.0295 14.864 14.259 14.6895 14.4698 14.4848C13.978 14.0125 13.4137 13.71 12.7861 13.5774C12.6152 13.5425 12.4372 13.5193 12.2546 13.5076V13.51ZM12.2546 13.0447C12.47 13.0563 12.6808 13.0819 12.8821 13.1238C13.5963 13.2727 14.2356 13.617 14.7882 14.1451C15.2589 13.5728 15.5094 12.9237 15.5469 12.1699H12.2546V13.0423V13.0447ZM8.48693 12.1722C8.52674 12.9237 8.77495 13.5751 9.24561 14.1474C9.79355 13.6193 10.4352 13.275 11.1493 13.1261C11.3554 13.0842 11.5685 13.0563 11.7863 13.0447V12.1722H8.48693ZM19.5581 14.0311H19.5628C20.1482 14.0311 20.6352 13.831 21.0497 13.4192C21.4665 13.0074 21.6679 12.5212 21.6655 11.9372C21.6655 11.7558 21.6491 11.5813 21.6093 11.4184C21.5227 11.0601 21.333 10.7344 21.0473 10.4506C20.6329 10.0388 20.1458 9.83869 19.5581 9.83869C18.968 9.83869 18.4786 10.0388 18.0618 10.4506C17.7808 10.7321 17.5935 11.0578 17.5068 11.4184C17.467 11.5813 17.4483 11.7534 17.4483 11.9349C17.4483 12.5235 17.6497 13.0051 18.0618 13.4169C18.4786 13.8287 18.9657 14.0288 19.5534 14.0288H19.5581V14.0311ZM4.22753 10.0644C3.70301 10.0644 3.26513 10.2458 2.89047 10.6158C2.51816 10.9857 2.33551 11.4207 2.33551 11.9442C2.33551 12.4677 2.51581 12.9004 2.89047 13.2727C3.26279 13.6426 3.70067 13.824 4.22753 13.824C4.7544 13.824 5.18994 13.6449 5.5646 13.2727C5.93691 12.9004 6.11956 12.4677 6.11956 11.9442C6.11956 11.4207 5.93691 10.988 5.5646 10.6158C5.19228 10.2458 4.7544 10.0644 4.22753 10.0644ZM9.24795 9.76192C8.789 10.3226 8.5361 10.974 8.48927 11.7069H11.7863V10.8647C11.6949 10.86 11.606 10.8531 11.5193 10.8438C11.3976 10.8298 11.2781 10.8089 11.1634 10.7856C10.4469 10.639 9.80292 10.297 9.24795 9.76657V9.76192ZM12.2546 11.7069H15.5469C15.5001 10.974 15.2472 10.3226 14.7882 9.76192C14.2379 10.2924 13.5916 10.6367 12.8728 10.7856C12.6737 10.8251 12.4653 10.8507 12.2546 10.8624V11.7069ZM9.56641 9.42224C10.0605 9.89686 10.6295 10.1993 11.2594 10.3273C11.3624 10.3505 11.4678 10.3668 11.5732 10.3784C11.6434 10.3854 11.7137 10.3924 11.7863 10.3971V8.44743C11.2219 8.48 10.7068 8.63122 10.2478 8.9011C10.009 9.04069 9.7795 9.21751 9.56641 9.42224ZM12.2546 8.44743V10.3971C12.4349 10.3878 12.6105 10.3645 12.7791 10.3296C13.409 10.1993 13.978 9.89453 14.4698 9.41992C14.259 9.21751 14.0366 9.04767 13.8024 8.91041C13.7954 8.90808 13.7883 8.90343 13.7813 8.89877C13.327 8.63122 12.8142 8.48 12.2546 8.44743ZM8.26916 3.61056C7.91792 3.61056 7.59946 3.69432 7.32081 3.8595C7.18265 3.94093 7.05152 4.04097 6.92976 4.16195C6.67686 4.41322 6.51061 4.70403 6.43333 5.02509C6.39821 5.17167 6.37948 5.32754 6.37714 5.4904C6.37714 6.01387 6.55744 6.44661 6.92976 6.81653C7.30441 7.18644 7.7423 7.36791 8.26916 7.36791C8.61806 7.36791 8.93418 7.28416 9.21283 7.1213C9.35099 7.03987 9.48212 6.93751 9.60388 6.81653C9.9762 6.44661 10.1565 6.01154 10.1565 5.4904C10.1565 5.32754 10.1401 5.17167 10.105 5.02509C10.0277 4.70403 9.85912 4.41322 9.60622 4.16195C9.2339 3.79203 8.79602 3.61056 8.26916 3.61056ZM15.7202 5.67187C15.9333 5.7882 16.1674 5.84403 16.432 5.84636C16.8488 5.84636 17.1977 5.70212 17.4928 5.40897C17.7878 5.11583 17.933 4.76918 17.933 4.35505C17.933 3.94093 17.7878 3.5966 17.4928 3.30346C17.1977 3.01032 16.8488 2.86607 16.432 2.86607C16.0152 2.86607 15.6663 3.01032 15.3713 3.30346C15.0762 3.5966 14.9334 3.94093 14.9334 4.35505C14.9334 4.7715 15.0762 5.11583 15.3713 5.40897C15.4556 5.49273 15.5469 5.56718 15.6406 5.62534C15.6499 5.62767 15.6593 5.63232 15.6663 5.63697C15.6851 5.64628 15.7038 5.65791 15.7202 5.67187ZM7.69781 20.0824C7.56902 20.0824 7.46364 19.9777 7.46364 19.8498V19.6101H7.22246C7.09367 19.6101 6.9883 19.5054 6.9883 19.3775C6.9883 19.2495 7.09367 19.1448 7.22246 19.1448H7.46364V18.9075C7.46364 18.7796 7.56902 18.6749 7.69781 18.6749C7.82659 18.6749 7.93197 18.7796 7.93197 18.9075V19.1448H8.17081C8.2996 19.1448 8.40497 19.2495 8.40497 19.3775C8.40497 19.5054 8.2996 19.6101 8.17081 19.6101H7.93197V19.8498C7.93197 19.9777 7.82659 20.0824 7.69781 20.0824ZM15.7717 19.2216C15.6429 19.2216 15.5375 19.1169 15.5375 18.989V18.6307H15.1769C15.0481 18.6307 14.9428 18.526 14.9428 18.398C14.9428 18.2701 15.0481 18.1654 15.1769 18.1654H15.5375V17.8117C15.5375 17.6838 15.6429 17.5791 15.7717 17.5791C15.9005 17.5791 16.0059 17.6838 16.0059 17.8117V18.1654H16.3618C16.4906 18.1654 16.5959 18.2701 16.5959 18.398C16.5959 18.526 16.4906 18.6307 16.3618 18.6307H16.0059V18.989C16.0059 19.1169 15.9005 19.2216 15.7717 19.2216ZM19.5604 12.8771C19.4316 12.8771 19.3263 12.7725 19.3263 12.6445V12.1699H18.8486C18.7198 12.1699 18.6144 12.0652 18.6144 11.9372C18.6144 11.8093 18.7198 11.7046 18.8486 11.7046H19.3263V11.23C19.3263 11.102 19.4316 10.9973 19.5604 10.9973C19.6892 10.9973 19.7946 11.102 19.7946 11.23V11.7046H20.2723C20.4011 11.7046 20.5064 11.8093 20.5064 11.9372C20.5064 12.0652 20.4011 12.1699 20.2723 12.1699H19.7946V12.6445C19.7946 12.7725 19.6892 12.8771 19.5604 12.8771ZM4.22051 12.7608C4.09172 12.7608 3.98635 12.6561 3.98635 12.5282V12.1699H3.62574C3.49695 12.1699 3.39158 12.0652 3.39158 11.9372C3.39158 11.8093 3.49695 11.7046 3.62574 11.7046H3.98635V11.3486C3.98635 11.2207 4.09172 11.116 4.22051 11.116C4.3493 11.116 4.45467 11.2207 4.45467 11.3486V11.7046H4.81294C4.94173 11.7046 5.0471 11.8093 5.0471 11.9372C5.0471 12.0652 4.94173 12.1699 4.81294 12.1699H4.45467V12.5282C4.45467 12.6561 4.3493 12.7608 4.22051 12.7608ZM8.26682 6.30934C8.13803 6.30934 8.03266 6.20465 8.03266 6.07669V5.7184H7.67205C7.54326 5.7184 7.43789 5.61371 7.43789 5.48575C7.43789 5.35779 7.54326 5.25309 7.67205 5.25309H8.03266V4.89946C8.03266 4.7715 8.13803 4.66681 8.26682 4.66681C8.39561 4.66681 8.50098 4.7715 8.50098 4.89946V5.25309H8.8569C8.98569 5.25309 9.09107 5.35779 9.09107 5.48575C9.09107 5.61371 8.98569 5.7184 8.8569 5.7184H8.50098V6.07669C8.50098 6.20465 8.39561 6.30934 8.26682 6.30934ZM16.432 5.05301C16.3032 5.05301 16.1979 4.94832 16.1979 4.82036V4.58305H15.9567C15.8279 4.58305 15.7225 4.47836 15.7225 4.3504C15.7225 4.22244 15.8279 4.11775 15.9567 4.11775H16.1979V3.87811C16.1979 3.75015 16.3032 3.64546 16.432 3.64546C16.5608 3.64546 16.6662 3.75015 16.6662 3.87811V4.11775H16.905C17.0338 4.11775 17.1392 4.22244 17.1392 4.3504C17.1392 4.47836 17.0338 4.58305 16.905 4.58305H16.6662V4.82036C16.6662 4.94832 16.5608 5.05301 16.432 5.05301Z" fill="#333333"/>
</g>
<defs>
<clipPath id="clip0_620_8269">
<rect width="20.2667" height="18.9333" fill="white" transform="translate(1.86719 2.39844)"/>
</clipPath>
</defs>
</svg>
