<svg width="24" height="24" viewBox="0 0 24 24" fill="none" xmlns="http://www.w3.org/2000/svg">
<path d="M9 11H8V13H9V11ZM10 6C10 5.44772 9.55228 5 9 5C8.44772 5 8 5.44772 8 6L10 6ZM8 18C8 18.5523 8.44772 19 9 19C9.55229 19 10 18.5523 10 18L8 18ZM6 17C5.44772 17 5 17.4477 5 18C5 18.5523 5.44772 19 6 19V17ZM6 5C5.44772 5 5 5.44772 5 6C5 6.55228 5.44772 7 6 7V5ZM9 6C9 6.55228 9.44772 7 10 7C10.5523 7 11 6.55228 11 6H9ZM11 3C11 2.44772 10.5523 2 10 2C9.44772 2 9 2.44772 9 3H11ZM13 6C13 6.55228 13.4477 7 14 7C14.5523 7 15 6.55228 15 6H13ZM15 3C15 2.44772 14.5523 2 14 2C13.4477 2 13 2.44772 13 3H15ZM13 21C13 21.5523 13.4477 22 14 22C14.5523 22 15 21.5523 15 21H13ZM15 18C15 17.4477 14.5523 17 14 17C13.4477 17 13 17.4477 13 18H15ZM9 21C9 21.5523 9.44772 22 10 22C10.5523 22 11 21.5523 11 21H9ZM11 18C11 17.4477 10.5523 17 10 17C9.44772 17 9 17.4477 9 18H11ZM15 12V11H9V12V13H15V12ZM9 6L8 6L8 18L9 18L10 18L10 6L9 6ZM6 18V19H15V18V17H6V18ZM6 6V7H15V6V5H6V6ZM18 9H17C17 10.1046 16.1046 11 15 11V12V13C17.2091 13 19 11.2091 19 9H18ZM15 6V7C16.1046 7 17 7.89543 17 9H18H19C19 6.79086 17.2091 5 15 5V6ZM18 15H17C17 16.1046 16.1046 17 15 17V18V19C17.2091 19 19 17.2091 19 15H18ZM15 12V13C16.1046 13 17 13.8954 17 15H18H19C19 12.7909 17.2091 11 15 11V12ZM10 6H11V3H10H9V6H10ZM14 6H15V3H14H13V6H14ZM14 21H15V18H14H13V21H14ZM10 21H11V18H10H9V21H10Z" fill="#FCC001"/>
</svg>
