<svg width="24" height="24" viewBox="0 0 24 24" fill="none" xmlns="http://www.w3.org/2000/svg">
<g clip-path="url(#clip0_620_8301)">
<path d="M14.673 20.353C14.353 20.353 14.0784 20.2384 13.8517 20.0144C13.6277 19.7904 13.513 19.513 13.513 19.193C13.513 18.873 13.6277 18.5957 13.8517 18.3717C14.0117 18.2117 14.1957 18.1077 14.4064 18.0624V17.1717L13.4704 16.2357L13.3184 16.3877C12.969 16.737 12.5424 16.9157 12.049 16.9157C11.5504 16.9157 11.121 16.737 10.7717 16.3877L10.6224 16.2357L9.68638 17.1717V18.0624C9.89971 18.1077 10.0864 18.2117 10.2464 18.3717C10.4704 18.5957 10.5824 18.873 10.5824 19.193C10.5824 19.513 10.4704 19.7877 10.2464 20.0117C10.0197 20.2357 9.74238 20.3504 9.42238 20.3504C9.10238 20.3504 8.82504 20.2357 8.60104 20.0117C8.37704 19.7877 8.26238 19.5104 8.26238 19.1904C8.26238 18.8704 8.37704 18.593 8.60104 18.369C8.75838 18.209 8.94504 18.105 9.15304 18.0597V17.0597C9.15304 16.9877 9.17971 16.921 9.22771 16.8704L10.2437 15.8544L9.42504 15.0384L6.83038 17.6357C6.94238 17.8144 7.00104 18.0197 7.00104 18.249C7.00104 18.5184 6.92104 18.7584 6.76104 18.961C6.72638 19.0037 6.69438 19.0357 6.65971 19.0704C6.43838 19.2917 6.16104 19.4064 5.84104 19.409C5.53971 19.4064 5.28371 19.305 5.07038 19.113C5.06238 19.1077 5.04104 19.089 5.01971 19.0677C4.79304 18.841 4.67838 18.5664 4.67838 18.249C4.67838 17.9317 4.79304 17.649 5.01704 17.425C5.04904 17.3904 5.08638 17.3584 5.12638 17.3264C5.32638 17.1664 5.56638 17.081 5.83838 17.0864C6.06771 17.0784 6.27038 17.1424 6.45171 17.257L9.04638 14.6597L8.23038 13.8437L7.21704 14.857C7.16638 14.9077 7.09971 14.9344 7.02771 14.9344H6.02771C5.98238 15.1424 5.87838 15.329 5.71838 15.489C5.49171 15.713 5.21438 15.8277 4.89438 15.8277C4.57438 15.8277 4.29704 15.713 4.07304 15.489C3.84904 15.265 3.73438 14.9877 3.73438 14.6677C3.73438 14.3477 3.84904 14.0704 4.07304 13.8464C4.29704 13.6224 4.57171 13.5077 4.89171 13.5077C5.21438 13.5077 5.49171 13.6224 5.71571 13.8464C5.87571 14.0064 5.97971 14.1904 6.02504 14.401H6.91571L7.85171 13.4677L7.69704 13.313C7.34771 12.9637 7.16904 12.5344 7.16904 12.0357C7.16904 11.5397 7.34771 11.113 7.69704 10.7637L7.84904 10.6117L6.91304 9.67571H6.01971C5.97171 9.88638 5.87038 10.073 5.70771 10.233C5.48371 10.457 5.20904 10.5717 4.88638 10.5717C4.56371 10.5717 4.28904 10.457 4.06238 10.233C3.84638 10.0117 3.73438 9.73704 3.73438 9.41704C3.73438 9.09704 3.84638 8.81971 4.07038 8.59571C4.29704 8.36904 4.57438 8.25704 4.89438 8.25704C5.21438 8.25704 5.49171 8.37171 5.71571 8.59571C5.87571 8.75571 5.97971 8.94238 6.02504 9.15038H7.02771C7.09971 9.15038 7.16638 9.17971 7.21704 9.22771L8.23038 10.241L9.04638 9.42504L6.44904 6.83038C6.27038 6.94238 6.06504 7.00104 5.83571 7.00104C5.56638 7.00104 5.32638 6.92104 5.12371 6.76104C5.08371 6.72904 5.04904 6.69704 5.01704 6.66504C4.79304 6.44104 4.67571 6.16638 4.67304 5.84638C4.67838 5.55038 4.77438 5.29438 4.96104 5.08371C4.97438 5.06771 4.98771 5.04904 5.00104 5.03304C5.23838 4.79838 5.51304 4.68371 5.83038 4.68371H5.83571C6.15838 4.68371 6.43571 4.79838 6.65971 5.02238C6.69171 5.05438 6.72638 5.09171 6.75571 5.12904C6.91571 5.33171 6.99838 5.57171 6.99571 5.84371C6.99571 6.06771 6.94238 6.27304 6.82771 6.45171L9.42504 9.04638L10.241 8.23038L9.22771 7.21704C9.17704 7.16638 9.15038 7.09971 9.15038 7.02771V6.02771C8.94238 5.97971 8.75571 5.87838 8.59571 5.71838C8.37171 5.49438 8.25704 5.21704 8.25704 4.89704C8.25704 4.57438 8.37171 4.29971 8.59571 4.07304C8.82238 3.84904 9.09704 3.73704 9.41704 3.73704H9.42504C9.74238 3.73704 10.017 3.84904 10.241 4.07304C10.465 4.29971 10.5797 4.57438 10.5797 4.89704C10.5797 5.21704 10.465 5.49438 10.241 5.71838C10.081 5.87838 9.89704 5.98238 9.68638 6.02771V6.91838L10.6197 7.85438L10.7744 7.69971C11.1264 7.35038 11.553 7.17438 12.049 7.17438C12.5424 7.17438 12.9717 7.35038 13.3184 7.69971L13.473 7.85438L14.4117 6.91838V6.02771C14.201 5.98238 14.0144 5.87571 13.8544 5.71571C13.6304 5.49171 13.5157 5.21704 13.5157 4.89438C13.5157 4.57171 13.6304 4.29704 13.8544 4.07038C14.0784 3.84638 14.353 3.73438 14.673 3.73438H14.681C14.9984 3.73438 15.273 3.84638 15.497 4.07038C15.721 4.29704 15.8357 4.57171 15.8357 4.89438C15.8357 5.21438 15.721 5.49171 15.497 5.71571C15.337 5.87571 15.153 5.97971 14.945 6.02504V7.02504C14.945 7.09704 14.9184 7.16371 14.8704 7.21438L13.8544 8.22771L14.673 9.04371L17.2677 6.44904C17.153 6.26771 17.0997 6.06238 17.1024 5.83571C17.0997 5.56904 17.1797 5.32904 17.3424 5.12371C17.3664 5.08904 17.3984 5.05171 17.4357 5.01704C17.6624 4.79304 17.9397 4.68104 18.2597 4.68104H18.2677C18.5824 4.68104 18.857 4.79304 19.081 5.01704C19.081 5.01704 19.0864 5.01971 19.0864 5.02238C19.105 5.04104 19.121 5.06238 19.137 5.08104C19.3184 5.28371 19.4197 5.54238 19.4224 5.83571C19.4197 6.16104 19.305 6.43571 19.081 6.65971C19.049 6.69171 19.017 6.72104 18.9824 6.75038C18.769 6.91571 18.5317 6.99838 18.2624 6.99838C18.033 6.99838 17.8277 6.93971 17.6464 6.82504L15.0517 9.41971L15.8677 10.2357L16.881 9.22238C16.9317 9.17171 16.9984 9.14504 17.0704 9.14504H18.0704C18.1184 8.93704 18.2197 8.75038 18.3797 8.59038C18.6064 8.36638 18.881 8.25171 19.2037 8.25171C19.5264 8.25171 19.801 8.36638 20.025 8.59038C20.249 8.81438 20.3637 9.09171 20.3637 9.41438C20.3637 9.73704 20.249 10.0117 20.025 10.2357C19.801 10.4597 19.5264 10.5744 19.2037 10.5744C18.881 10.5744 18.6064 10.4597 18.3797 10.2357C18.2197 10.0757 18.1157 9.89171 18.0677 9.68104H17.177L16.241 10.6144L16.393 10.769C16.7424 11.1157 16.9184 11.545 16.9184 12.0384C16.9184 12.5344 16.7424 12.9637 16.393 13.3157L16.2357 13.4704L17.1717 14.4037H18.0624C18.1077 14.193 18.2117 14.0064 18.3717 13.8464C18.5957 13.6224 18.873 13.5077 19.193 13.5077C19.5157 13.5077 19.793 13.6224 20.017 13.8464C20.241 14.073 20.3557 14.3477 20.3557 14.6704C20.3557 14.993 20.241 15.2677 20.017 15.4917C19.793 15.7157 19.5157 15.8304 19.193 15.8304C18.873 15.8304 18.5957 15.7157 18.3717 15.4917C18.2117 15.3317 18.1077 15.1477 18.0624 14.937H17.0624C16.993 14.937 16.9237 14.9077 16.873 14.8597L15.857 13.8464L15.0437 14.6624L17.6384 17.2597C17.817 17.1477 18.0197 17.089 18.2464 17.089C18.2517 17.089 18.257 17.089 18.2624 17.089C18.5264 17.089 18.7637 17.1717 18.9664 17.3317C19.001 17.3557 19.0384 17.3904 19.0757 17.4277C19.2997 17.6517 19.4117 17.929 19.4117 18.2517C19.4117 18.569 19.2997 18.8437 19.0757 19.0677C19.0517 19.0917 19.0304 19.1077 19.009 19.1264C18.809 19.3077 18.5504 19.4064 18.2544 19.409C17.929 19.4064 17.6544 19.2917 17.4304 19.0677C17.3984 19.0384 17.369 19.0037 17.3397 18.969C17.1744 18.7584 17.0917 18.5184 17.0917 18.249C17.0917 18.0197 17.1504 17.8144 17.2624 17.6357L14.6677 15.0384L13.849 15.8544L14.8624 16.8704C14.913 16.921 14.9397 16.9877 14.9397 17.0597V18.0597C15.1477 18.1077 15.3344 18.2117 15.4944 18.3717C15.7184 18.5957 15.833 18.8704 15.833 19.193C15.833 19.513 15.7184 19.7904 15.4944 20.0144C15.2704 20.2384 14.993 20.353 14.673 20.353ZM14.673 18.569C14.4944 18.569 14.353 18.6277 14.2304 18.7504C14.105 18.8757 14.0464 19.017 14.0464 19.1957C14.0464 19.3744 14.105 19.5157 14.2277 19.6384C14.353 19.7637 14.4944 19.8197 14.6704 19.8197C14.8464 19.8197 14.9904 19.761 15.113 19.6384C15.2384 19.513 15.2944 19.3717 15.2944 19.1957C15.2944 19.017 15.2357 18.8757 15.113 18.753C14.9877 18.6277 14.8464 18.569 14.6704 18.569H14.673ZM9.41971 18.569C9.24104 18.569 9.09971 18.6277 8.97704 18.7504C8.85171 18.8757 8.79304 19.017 8.79304 19.1957C8.79304 19.3744 8.85171 19.5157 8.97704 19.6384C9.10238 19.7637 9.24104 19.8197 9.41971 19.8197C9.59838 19.8197 9.74238 19.761 9.86771 19.6357C9.99038 19.513 10.0464 19.3717 10.0464 19.193C10.0464 19.0117 9.99038 18.873 9.86771 18.7477C9.74238 18.6224 9.60104 18.5664 9.42238 18.5637L9.41971 18.569ZM5.83571 17.625C5.68904 17.625 5.56638 17.665 5.45971 17.7504C5.43571 17.769 5.41704 17.785 5.40104 17.8037C5.27571 17.929 5.21438 18.0757 5.21438 18.2544C5.21438 18.433 5.27304 18.5717 5.39571 18.6944C5.40104 18.6997 5.42238 18.7184 5.42771 18.721C5.54238 18.825 5.67838 18.8784 5.84104 18.8784C6.01438 18.8784 6.16104 18.817 6.28371 18.6917C6.30771 18.6704 6.32638 18.649 6.34504 18.6277C6.42504 18.5264 6.46771 18.401 6.46771 18.2517C6.46771 18.0864 6.41704 17.9504 6.31304 17.8357C6.30238 17.825 6.29704 17.817 6.28904 17.809C6.16371 17.6837 6.01971 17.6224 5.84371 17.6277H5.83838L5.83571 17.625ZM17.8037 17.809C17.7957 17.8144 17.7904 17.8224 17.785 17.8304C17.6757 17.953 17.625 18.089 17.625 18.2544C17.625 18.401 17.6677 18.5264 17.753 18.6357C17.7637 18.649 17.785 18.6704 17.8064 18.6917C17.9317 18.817 18.0784 18.8784 18.2544 18.881C18.4144 18.881 18.5504 18.8277 18.665 18.7237C18.6864 18.7077 18.6917 18.6997 18.6997 18.6944C18.8197 18.5744 18.8784 18.433 18.8757 18.257C18.8757 18.0757 18.8197 17.9344 18.697 17.809C18.6784 17.7904 18.657 17.7717 18.6384 17.7557C18.5237 17.665 18.409 17.6357 18.2544 17.625H18.2517C18.073 17.625 17.9344 17.6837 17.8117 17.8064C17.8117 17.8064 17.8117 17.8064 17.809 17.809H17.8037ZM10.8117 15.6704L11.1477 16.009C11.3984 16.257 11.6917 16.3797 12.0464 16.3797C12.3984 16.3797 12.6917 16.257 12.9397 16.0064L13.281 15.665L15.6677 13.2784L16.0144 12.9344C16.2624 12.6864 16.3824 12.3904 16.3824 12.0357C16.3824 11.681 16.2624 11.3904 16.0117 11.1424L14.4784 9.60638L13.2837 8.41438L12.9397 8.07038C12.6917 7.82238 12.3984 7.69971 12.0464 7.69971C11.6917 7.69971 11.3984 7.81971 11.1477 8.07038L10.8064 8.41171L9.61438 9.60371L8.08104 11.1397C7.83038 11.3904 7.70771 11.681 7.70771 12.0357C7.70771 12.3904 7.83038 12.6837 8.08104 12.9344L10.8117 15.6624V15.6704ZM18.5664 14.673C18.5664 14.8517 18.625 14.993 18.7477 15.1157C18.873 15.241 19.0144 15.2997 19.193 15.2997C19.369 15.2997 19.5157 15.2384 19.6384 15.1157C19.7637 14.993 19.8197 14.8517 19.8197 14.673C19.8197 14.4944 19.761 14.3504 19.6357 14.2277C19.5104 14.1024 19.369 14.0464 19.1904 14.0437C19.0117 14.0437 18.8704 14.1024 18.7477 14.225C18.625 14.3477 18.5637 14.4944 18.5637 14.6704L18.5664 14.673ZM4.89704 14.0464C4.71838 14.0464 4.57704 14.105 4.45438 14.2277C4.32904 14.353 4.27038 14.4944 4.27038 14.673C4.27038 14.8517 4.32904 14.993 4.45438 15.1184C4.57971 15.2437 4.71838 15.2997 4.89704 15.2997C5.07571 15.2997 5.21704 15.241 5.34238 15.1157C5.46771 14.9904 5.52371 14.849 5.52371 14.6704C5.52371 14.4917 5.46504 14.3504 5.34238 14.2277C5.21704 14.1024 5.07571 14.0437 4.89438 14.0437L4.89704 14.0464ZM18.569 9.41704C18.569 9.59571 18.6277 9.73704 18.7504 9.85971C18.873 9.98238 19.0197 10.0437 19.1984 10.0437C19.377 10.0437 19.5184 9.98504 19.641 9.86238C19.7664 9.73704 19.825 9.59571 19.825 9.41971C19.825 9.24371 19.7664 9.09704 19.641 8.97438C19.5157 8.84904 19.377 8.79304 19.1984 8.79304C19.0197 8.79304 18.8757 8.85171 18.753 8.97704C18.6277 9.10238 18.5717 9.24371 18.5717 9.42238L18.569 9.41704ZM4.89438 8.78771C4.71838 8.78771 4.57171 8.84638 4.44904 8.97171C4.32638 9.09438 4.26771 9.23838 4.27038 9.41704C4.27038 9.59571 4.32638 9.73704 4.45171 9.86238C4.57438 9.98504 4.72104 10.0437 4.89704 10.0437C5.07571 10.0437 5.21704 9.98504 5.33971 9.86238C5.46504 9.73704 5.52371 9.59571 5.52371 9.41971C5.52371 9.24371 5.46238 9.09704 5.33971 8.97438C5.21438 8.84904 5.07571 8.79304 4.89704 8.79304L4.89438 8.78771ZM18.2544 5.21438C18.073 5.21438 17.929 5.27038 17.8064 5.39571C17.7904 5.41171 17.7744 5.43038 17.7584 5.45171C17.6677 5.56638 17.6277 5.69171 17.6304 5.83838C17.6304 6.02238 17.6837 6.16104 17.8064 6.28371C17.809 6.28638 17.817 6.29438 17.8277 6.30238C17.9557 6.41704 18.0917 6.46771 18.257 6.46771C18.4037 6.46771 18.529 6.42504 18.6384 6.33971C18.6517 6.32638 18.673 6.30771 18.6944 6.28638C18.8197 6.16104 18.881 6.01704 18.881 5.83838C18.881 5.67838 18.8277 5.54238 18.7237 5.42771C18.7077 5.40904 18.6997 5.40104 18.6944 5.39304C18.5717 5.27304 18.433 5.21704 18.2597 5.21704H18.2544V5.21438ZM5.39304 5.39304C5.39304 5.39304 5.38771 5.39838 5.38504 5.40638C5.37971 5.41438 5.37438 5.41971 5.36904 5.42771C5.26238 5.54504 5.21171 5.68104 5.20904 5.84638C5.20904 6.01704 5.27038 6.16371 5.39304 6.28638C5.41438 6.30771 5.43571 6.32638 5.45971 6.34504C5.56371 6.42771 5.68904 6.46771 5.83838 6.46771C6.00371 6.46771 6.13971 6.41704 6.25438 6.31304C6.26771 6.30238 6.27571 6.29438 6.28104 6.28638C6.28104 6.28638 6.28104 6.28638 6.28371 6.28371C6.40638 6.16104 6.46504 6.01971 6.46238 5.84371C6.46238 5.69171 6.42238 5.56638 6.33704 5.45704C6.32104 5.43571 6.30504 5.41704 6.28638 5.40104C6.15838 5.27304 6.01971 5.21971 5.83304 5.21438C5.65704 5.21438 5.51571 5.27304 5.39038 5.39571L5.39304 5.39304ZM14.673 4.27038C14.4944 4.27038 14.3557 4.32638 14.2304 4.45171C14.105 4.57704 14.049 4.71838 14.049 4.89704C14.049 5.07571 14.1077 5.21704 14.2304 5.33971C14.3557 5.46504 14.497 5.52371 14.673 5.52371C14.8517 5.52371 14.993 5.46504 15.1157 5.33971C15.241 5.21438 15.297 5.07571 15.2997 4.89704C15.2997 4.71838 15.241 4.57704 15.1157 4.45171C14.993 4.32904 14.8517 4.27304 14.6757 4.27304C14.6757 4.27304 14.673 4.27304 14.6704 4.27304L14.673 4.27038ZM9.41438 4.27038C9.23304 4.27038 9.09438 4.32904 8.96904 4.45171C8.84638 4.57438 8.78771 4.71838 8.78771 4.89704C8.78771 5.07571 8.84638 5.21704 8.96904 5.33971C9.09438 5.46504 9.23571 5.52371 9.41704 5.52371C9.59571 5.52371 9.73704 5.46504 9.85971 5.33971C9.98504 5.21438 10.041 5.07571 10.0437 4.89704C10.0437 4.71838 9.98504 4.57704 9.85971 4.45171C9.73704 4.32904 9.59838 4.27304 9.41971 4.27304C9.41971 4.27304 9.41704 4.27304 9.41438 4.27304V4.27038ZM12.0357 14.7237C11.9904 14.7237 11.9424 14.713 11.9024 14.689L9.81438 13.481C9.73171 13.433 9.68104 13.345 9.68104 13.249V10.8277C9.68104 10.7317 9.73171 10.6437 9.81438 10.5957L11.9024 9.38771C11.985 9.33971 12.0864 9.33971 12.169 9.38771L14.2624 10.5984C14.345 10.6464 14.3957 10.7344 14.3957 10.8304V13.249C14.3957 13.345 14.345 13.433 14.2624 13.481L12.169 14.689C12.129 14.713 12.081 14.7237 12.0357 14.7237ZM10.2144 13.0944L12.0357 14.1477L13.8624 13.0944V10.985L12.0357 9.92904L10.2144 10.9824V13.0944ZM12.0544 13.1477H12.049C11.7424 13.1477 11.4784 13.0357 11.2597 12.817C11.0437 12.601 10.9317 12.337 10.929 12.0304C10.929 11.721 11.041 11.457 11.257 11.2437C11.4704 11.0304 11.7344 10.9237 12.0384 10.921C12.3477 10.9237 12.609 11.0277 12.825 11.2437C13.0437 11.4624 13.153 11.729 13.153 12.0357C13.1557 12.3397 13.0517 12.6064 12.8384 12.8224C12.6197 13.0384 12.3557 13.145 12.049 13.145L12.0544 13.1477ZM12.0384 11.4544C11.8757 11.4544 11.7477 11.5077 11.6357 11.6197C11.5184 11.7344 11.465 11.865 11.465 12.0304C11.465 12.1904 11.521 12.321 11.6384 12.4384C11.7557 12.5584 11.889 12.6117 12.0517 12.6144C12.217 12.6144 12.3477 12.561 12.4624 12.449C12.5717 12.337 12.6224 12.2064 12.6224 12.041C12.6224 11.873 12.5664 11.7397 12.4517 11.6224C12.337 11.5077 12.2144 11.4624 12.0437 11.457C12.0437 11.457 12.0437 11.457 12.041 11.457L12.0384 11.4544Z" fill="#333333"/>
</g>
<defs>
<clipPath id="clip0_620_8301">
<rect width="16.624" height="16.616" fill="white" transform="translate(3.73438 3.73438)"/>
</clipPath>
</defs>
</svg>
