<svg width="24" height="24" viewBox="0 0 24 24" fill="none" xmlns="http://www.w3.org/2000/svg">
<path d="M6.17843 8.51277L6.906 9.19881L6.91512 9.18913L6.92399 9.17921L6.17843 8.51277ZM17.8216 8.51277L17.076 9.17921L17.0849 9.18913L17.094 9.19881L17.8216 8.51277ZM12 2L12.7456 1.33356C12.5558 1.12132 12.2847 1 12 1C11.7153 1 11.4442 1.12132 11.2544 1.33356L12 2ZM4 14H3C3 18.9706 7.02944 23 12 23V22V21C8.13401 21 5 17.866 5 14H4ZM12 22V23C16.9706 23 21 18.9706 21 14H20H19C19 17.866 15.866 21 12 21V22ZM6.17843 8.51277L5.45086 7.82674C3.93225 9.43729 3 11.6109 3 14H4H5C5 12.1409 5.72339 10.453 6.906 9.19881L6.17843 8.51277ZM20 14H21C21 11.6109 20.0678 9.43729 18.5491 7.82674L17.8216 8.51277L17.094 9.19881C18.2766 10.453 19 12.1409 19 14H20ZM12 2L11.2544 2.66644L17.076 9.17921L17.8216 8.51277L18.5671 7.84634L12.7456 1.33356L12 2ZM12 2L11.2544 1.33356L5.43286 7.84634L6.17843 8.51277L6.92399 9.17921L12.7456 2.66644L12 2Z" fill="#FCC001"/>
</svg>
