<svg width="24" height="24" viewBox="0 0 24 24" fill="none" xmlns="http://www.w3.org/2000/svg">
<path d="M3 12.9745C3 16.8546 6.13401 20 10 20C11.5735 20 13.0258 19.4789 14.1949 18.5993C14.6368 18.2668 14.6332 17.6245 14.2426 17.2326L10.2929 13.2685C10.1054 13.0802 10 12.825 10 12.5588V6.95263C10 6.39833 9.54972 5.94145 9.00297 6.01971C5.60923 6.50542 3 9.43414 3 12.9745Z" stroke="#FCC001" stroke-width="2" stroke-linejoin="round"/>
<path d="M21 11.469C21 7.65126 18.1681 4.49733 14.4976 4.0077C13.9501 3.93467 13.5 4.39104 13.5 4.94534V11.0533C13.5 11.3195 13.6054 11.5748 13.7929 11.763L18.0962 16.082C18.4867 16.4739 19.1261 16.4774 19.4615 16.0371C20.4267 14.7703 21 13.1869 21 11.469Z" stroke="#FCC001" stroke-width="2" stroke-linejoin="round"/>
</svg>
