<svg width="24" height="24" viewBox="0 0 24 24" fill="none" xmlns="http://www.w3.org/2000/svg">
<g clip-path="url(#clip0_620_8317)">
<path d="M12.1137 22.5002C9.59102 22.5002 7.40702 21.5962 5.62302 19.8122C4.82035 19.0096 4.19102 18.1189 3.74569 17.1669C3.20435 15.9989 2.92969 14.7056 2.92969 13.3189C2.92969 10.7962 3.83635 8.61223 5.62035 6.82823C5.65235 6.79623 5.68169 6.7669 5.71369 6.73756H3.36435C3.21769 6.73756 3.09769 6.61756 3.09769 6.4709C3.09769 6.32423 3.21769 6.20423 3.36435 6.20423H6.40435C6.40435 6.20423 6.41502 6.20423 6.42035 6.20423C6.47635 6.2069 6.52969 6.22823 6.56969 6.26023C6.58302 6.2709 6.59635 6.28156 6.60702 6.2949C6.64702 6.34023 6.67102 6.40156 6.67102 6.46823V9.50823C6.67102 9.6549 6.55102 9.7749 6.40435 9.7749C6.25769 9.7749 6.13769 9.6549 6.13769 9.50823V7.06823C6.09235 7.11356 6.04435 7.1589 5.99902 7.20423C4.31635 8.8869 3.46302 10.9429 3.46302 13.3189C3.46302 14.6282 3.72169 15.8469 4.22835 16.9429C4.64435 17.8389 5.24169 18.6789 5.99902 19.4362C7.67902 21.1162 9.73502 21.9669 12.1084 21.9669H12.1137C13.7484 21.9669 15.2364 21.5642 16.5377 20.7722C16.6657 20.6949 16.8284 20.7349 16.9057 20.8602C16.983 20.9856 16.943 21.1509 16.8177 21.2282C15.431 22.0736 13.8497 22.5002 12.119 22.5002H12.1137ZM12.1004 20.6736C11.9537 20.6736 11.8337 20.5536 11.8337 20.4069V18.8202C11.8337 18.6736 11.9537 18.5536 12.1004 18.5536C12.247 18.5536 12.367 18.6736 12.367 18.8202V20.4069C12.367 20.5536 12.247 20.6736 12.1004 20.6736ZM20.839 20.3802H17.799C17.6524 20.3802 17.5324 20.2602 17.5324 20.1136V17.0736C17.5324 16.9269 17.6524 16.8069 17.799 16.8069C17.9457 16.8069 18.0657 16.9269 18.0657 17.0736V19.5962C18.1217 19.5429 18.1777 19.4896 18.231 19.4362C18.9884 18.6762 19.5857 17.8389 20.0017 16.9429C20.5084 15.8469 20.767 14.6282 20.767 13.3189C20.767 10.9429 19.9137 8.8869 18.231 7.20423C17.671 6.64423 17.0657 6.17223 16.4284 5.7989C15.1564 5.05223 13.7057 4.6709 12.119 4.6709H12.1164C10.5164 4.6709 9.06035 5.0549 7.78302 5.80956L7.65235 5.8869C7.52702 5.96423 7.36169 5.92423 7.28435 5.7989C7.20702 5.67356 7.24702 5.50823 7.37235 5.4309L7.50835 5.34823C8.79902 4.5829 10.2604 4.17756 11.8497 4.13756V2.1349H10.2044C10.0577 2.1349 9.93769 2.0149 9.93769 1.86823C9.93769 1.72156 10.0577 1.60156 10.2044 1.60156H14.031C14.1777 1.60156 14.2977 1.72156 14.2977 1.86823C14.2977 2.0149 14.1777 2.1349 14.031 2.1349H12.3857V4.14023C13.9644 4.18023 15.415 4.5829 16.6977 5.33756C17.3724 5.73223 18.015 6.23356 18.607 6.82556C20.3937 8.61223 21.2977 10.7936 21.2977 13.3162C21.2977 14.7029 21.023 15.9989 20.4844 17.1642C20.0417 18.1162 19.4097 19.0069 18.607 19.8096C18.5964 19.8202 18.583 19.8336 18.5724 19.8442H20.839C20.9857 19.8442 21.1057 19.9642 21.1057 20.1109C21.1057 20.2576 20.9857 20.3776 20.839 20.3776V20.3802ZM8.53769 19.7242C8.49235 19.7242 8.44702 19.7136 8.40435 19.6896C8.27635 19.6149 8.23369 19.4522 8.30569 19.3242L9.10569 17.9349C9.18035 17.8069 9.34302 17.7642 9.47102 17.8362C9.59902 17.9109 9.64169 18.0736 9.56969 18.2016L8.76969 19.5909C8.71902 19.6762 8.63102 19.7242 8.53769 19.7242ZM15.6657 19.7216C15.575 19.7216 15.4844 19.6736 15.4364 19.5882L14.623 18.1962C14.5484 18.0682 14.591 17.9056 14.719 17.8309C14.847 17.7562 15.0097 17.7989 15.0844 17.9269L15.8977 19.3189C15.9724 19.4469 15.9297 19.6096 15.8017 19.6842C15.759 19.7082 15.7137 19.7216 15.6684 19.7216H15.6657ZM5.91369 17.1216C5.82035 17.1216 5.73235 17.0736 5.68169 16.9882C5.60702 16.8602 5.65235 16.6976 5.78035 16.6229L7.19635 15.8069C7.32435 15.7322 7.48702 15.7776 7.56169 15.9056C7.63635 16.0336 7.59102 16.1962 7.46302 16.2709L6.04702 17.0869C6.00435 17.1109 5.95902 17.1216 5.91369 17.1216ZM15.6577 15.6282C15.6124 15.6282 15.567 15.6176 15.5244 15.5936L13.0417 14.1749C13.0284 14.1882 13.015 14.2016 13.0017 14.2149C12.7564 14.4576 12.455 14.5829 12.1084 14.5829C11.7617 14.5829 11.4604 14.4602 11.215 14.2149C10.967 13.9696 10.8417 13.6709 10.8417 13.3216C10.8417 12.9722 10.967 12.6736 11.215 12.4282C11.3937 12.2522 11.599 12.1402 11.8284 12.0896V6.18023C11.8284 6.03356 11.9484 5.91356 12.095 5.91356C12.2417 5.91356 12.3617 6.03356 12.3617 6.18023V12.0842C12.607 12.1322 12.8204 12.2469 13.0017 12.4256C13.2497 12.6709 13.375 12.9696 13.375 13.3189C13.375 13.4576 13.3537 13.5909 13.3137 13.7136L15.7857 15.1269C15.9137 15.1989 15.959 15.3616 15.8844 15.4896C15.8364 15.5749 15.7457 15.6229 15.6524 15.6229L15.6577 15.6282ZM12.1137 12.5936C11.903 12.5936 11.7377 12.6656 11.5937 12.8069C11.4497 12.9482 11.3804 13.1162 11.3804 13.3216C11.3804 13.5269 11.4497 13.6922 11.5937 13.8362C11.7377 13.9802 11.9084 14.0496 12.1137 14.0496C12.319 14.0496 12.487 13.9802 12.6337 13.8362C12.679 13.7909 12.719 13.7429 12.751 13.6922C12.8177 13.5829 12.8497 13.4629 12.8497 13.3242C12.8497 13.1216 12.7804 12.9536 12.6364 12.8096C12.4924 12.6656 12.3217 12.5962 12.1164 12.5962L12.1137 12.5936ZM19.2097 13.5536H17.6257C17.479 13.5536 17.359 13.4336 17.359 13.2869C17.359 13.1402 17.479 13.0202 17.6257 13.0202H19.2097C19.3564 13.0202 19.4764 13.1402 19.4764 13.2869C19.4764 13.4336 19.3564 13.5536 19.2097 13.5536ZM6.57235 13.5536H4.98302C4.83635 13.5536 4.71635 13.4336 4.71635 13.2869C4.71635 13.1402 4.83635 13.0202 4.98302 13.0202H6.57235C6.71902 13.0202 6.83902 13.1402 6.83902 13.2869C6.83902 13.4336 6.71902 13.5536 6.57235 13.5536ZM16.8817 10.7936C16.791 10.7936 16.7004 10.7456 16.6497 10.6602C16.575 10.5322 16.6204 10.3696 16.7457 10.2949L18.127 9.4949C18.255 9.42023 18.4177 9.46556 18.4924 9.5909C18.567 9.7189 18.5217 9.88156 18.3964 9.95623L17.015 10.7562C16.9724 10.7802 16.927 10.7909 16.8817 10.7909V10.7936ZM9.35369 8.78823C9.26302 8.78823 9.17235 8.74023 9.12169 8.6549L8.31102 7.25756C8.23635 7.12956 8.28169 6.9669 8.40702 6.89223C8.53502 6.81756 8.69769 6.8629 8.77235 6.98823L9.58302 8.38556C9.65769 8.51356 9.61235 8.67623 9.48702 8.7509C9.44435 8.7749 9.39902 8.78556 9.35369 8.78556V8.78823ZM14.8524 8.77756C14.807 8.77756 14.7617 8.7669 14.719 8.74023C14.591 8.66556 14.5484 8.5029 14.623 8.3749L15.431 6.9909C15.5057 6.8629 15.6684 6.82023 15.7964 6.8949C15.9244 6.96956 15.967 7.13223 15.8924 7.26023L15.0844 8.64423C15.0337 8.72956 14.9457 8.77756 14.8524 8.77756Z" fill="#333333"/>
</g>
<defs>
<clipPath id="clip0_620_8317">
<rect width="18.368" height="20.8987" fill="white" transform="translate(2.92969 1.60156)"/>
</clipPath>
</defs>
</svg>
