<svg width="24" height="24" viewBox="0 0 24 24" fill="none" xmlns="http://www.w3.org/2000/svg">
<g clip-path="url(#clip0_620_8253)">
<path d="M11.9397 20.153C9.68104 20.153 7.72904 19.3424 6.13437 17.7477C4.91304 16.5264 4.15037 15.0944 3.86237 13.4917C3.85171 13.433 3.84104 13.3717 3.83037 13.3077L3.80904 13.153C3.75837 12.761 3.73438 12.3557 3.73438 11.9424C3.73438 11.5317 3.75837 11.1264 3.80904 10.737C4.04904 8.98771 4.83304 7.43837 6.13437 6.13437C7.72904 4.54238 9.68104 3.73438 11.9344 3.73438C11.937 3.73438 11.9397 3.73438 11.9424 3.73438C14.1984 3.73438 16.1477 4.54238 17.7424 6.13437C19.0464 7.43837 19.8304 8.98504 20.073 10.7344C20.1237 11.1264 20.1477 11.5344 20.1477 11.945C20.1477 12.3557 20.1184 12.7637 20.0624 13.1557C19.825 14.8997 19.0437 16.4464 17.7424 17.7504C16.1477 19.345 14.1957 20.1557 11.937 20.1557L11.9397 20.153ZM11.9344 4.26771C9.82504 4.26771 8.00104 5.02237 6.51037 6.51304C5.29171 7.73171 4.56104 9.17704 4.33704 10.8064C4.28904 11.1717 4.26504 11.553 4.26771 11.9424C4.26771 12.3344 4.28904 12.7157 4.33704 13.081L4.35571 13.2117C4.36637 13.2757 4.37704 13.3344 4.38771 13.393C4.65704 14.8917 5.36904 16.2277 6.50771 17.3637C8.00371 18.8597 9.83037 19.617 11.9397 19.617C14.049 19.617 15.8757 18.8597 17.3664 17.369C18.585 16.1504 19.3157 14.7077 19.537 13.0784C19.5904 12.7104 19.617 12.3264 19.617 11.9424C19.617 11.553 19.5957 11.1717 19.5477 10.8037C19.321 9.17437 18.5904 7.73171 17.369 6.51037C15.8784 5.02237 14.0544 4.26504 11.945 4.26504C11.9424 4.26504 11.9397 4.26504 11.937 4.26504L11.9344 4.26771ZM13.4597 15.6437C13.3504 15.6437 13.2517 15.577 13.2117 15.4757L10.7477 9.23837L9.64104 12.0437C9.60104 12.145 9.50237 12.2117 9.39304 12.2117H6.11304C5.96637 12.2117 5.84637 12.0917 5.84637 11.945C5.84637 11.7984 5.96637 11.6784 6.11304 11.6784H9.21171L10.4997 8.41437C10.5397 8.31304 10.6384 8.24637 10.7477 8.24637C10.857 8.24637 10.9557 8.31304 10.9957 8.41437L13.4597 14.6517L14.5664 11.8464C14.6064 11.745 14.705 11.6784 14.8144 11.6784H17.825C17.9717 11.6784 18.0917 11.7984 18.0917 11.945C18.0917 12.0917 17.9717 12.2117 17.825 12.2117H14.9957L13.7077 15.4757C13.6677 15.577 13.569 15.6437 13.4597 15.6437Z" fill="#333333"/>
</g>
<defs>
<clipPath id="clip0_620_8253">
<rect width="16.4133" height="16.4187" fill="white" transform="translate(3.73438 3.73438)"/>
</clipPath>
</defs>
</svg>
