<svg width="24" height="24" viewBox="0 0 24 24" fill="none" xmlns="http://www.w3.org/2000/svg">
<g clip-path="url(#clip0_620_8285)">
<path d="M4.9695 5.0426C4.99083 5.05327 5.01483 5.05327 5.03617 5.0426L5.5455 4.7386V7.6266C5.5455 7.66394 5.57483 7.69327 5.61217 7.69327H5.8015C5.83883 7.69327 5.86817 7.66394 5.86817 7.6266V4.4026C5.86817 4.36527 5.83883 4.33594 5.8015 4.33594H5.61217C5.61217 4.33594 5.58817 4.3386 5.5775 4.3466L4.9695 4.70927C4.94817 4.71994 4.9375 4.74394 4.9375 4.76527V4.98394C4.9375 5.00794 4.95083 5.02927 4.97217 5.0426H4.9695Z" fill="black"/>
<path d="M11.0171 7.6903H13.0465C13.0838 7.6903 13.1131 7.66096 13.1131 7.62363V7.4343C13.1131 7.39696 13.0838 7.36763 13.0465 7.36763H11.4705L12.6998 6.24763C12.7958 6.15963 12.8758 6.06897 12.9371 5.98097C12.9985 5.88763 13.0438 5.7863 13.0705 5.6823C13.0971 5.57563 13.1131 5.4583 13.1131 5.33297C13.1131 5.14363 13.0651 4.96497 12.9718 4.8023C12.8785 4.6423 12.7505 4.51163 12.5905 4.41297C12.2731 4.2183 11.8385 4.21563 11.5105 4.4103C11.3505 4.5063 11.2225 4.6343 11.1265 4.7943C11.0305 4.95697 10.9825 5.13563 10.9825 5.3303C10.9825 5.36763 11.0118 5.39697 11.0491 5.39697H11.2385C11.2758 5.39697 11.3051 5.36763 11.3051 5.3303C11.3051 5.19697 11.3371 5.0743 11.4038 4.9623C11.4678 4.8503 11.5585 4.75697 11.6705 4.6903C11.8891 4.55697 12.1985 4.5543 12.4225 4.6903C12.5345 4.75697 12.6251 4.84763 12.6918 4.95963C12.7585 5.07163 12.7931 5.19697 12.7931 5.33297C12.7931 5.4583 12.7745 5.5783 12.7371 5.68497C12.6998 5.78897 12.6171 5.8983 12.4891 6.01563L10.9798 7.39163C10.9665 7.40496 10.9585 7.42096 10.9585 7.43963L10.9531 7.62896C10.9531 7.64763 10.9585 7.66363 10.9718 7.67696C10.9851 7.6903 11.0011 7.6983 11.0198 7.6983L11.0171 7.6903Z" fill="black"/>
<path d="M18.1911 7.67727C18.3271 7.73327 18.4791 7.75994 18.6471 7.75994C18.8525 7.75994 19.0365 7.7146 19.1938 7.62394C19.3511 7.53327 19.4765 7.4026 19.5645 7.23727C19.6525 7.07194 19.6951 6.87994 19.6951 6.6586C19.6951 6.4026 19.6365 6.18127 19.5165 6.0026C19.3965 5.82127 19.2338 5.69327 19.0285 5.6186C18.9218 5.58127 18.8071 5.55994 18.6845 5.55727L19.6471 4.63994C19.6471 4.63994 19.6685 4.6106 19.6685 4.59194V4.4026C19.6685 4.36527 19.6391 4.33594 19.6018 4.33594H17.8151C17.7778 4.33594 17.7485 4.36527 17.7485 4.4026V4.59194C17.7485 4.62927 17.7778 4.6586 17.8151 4.6586H19.1618L18.0605 5.71727C18.0365 5.74127 18.0338 5.7786 18.0525 5.80527L18.1645 5.95727C18.1831 5.98394 18.2178 5.99194 18.2471 5.9786C18.3058 5.95194 18.3725 5.92794 18.4418 5.91194C18.5111 5.89594 18.5778 5.88794 18.6365 5.88794C18.8605 5.88794 19.0338 5.9546 19.1645 6.09327C19.2951 6.22927 19.3618 6.42127 19.3618 6.66394C19.3618 6.82394 19.3325 6.9626 19.2765 7.07727C19.2231 7.18927 19.1405 7.27727 19.0365 7.34127C18.9298 7.40527 18.7965 7.43994 18.6418 7.4426C18.4791 7.44794 18.3298 7.40794 18.2018 7.3226C18.0765 7.23994 17.9805 7.1146 17.9218 6.94927C17.9085 6.9146 17.8711 6.89594 17.8365 6.90927L17.6605 6.97327C17.6258 6.9866 17.6098 7.02127 17.6205 7.05594C17.6685 7.2026 17.7405 7.33327 17.8391 7.43727C17.9378 7.54394 18.0551 7.6266 18.1911 7.6826V7.67727Z" fill="black"/>
<path d="M6.46829 12.5942H6.15096V11.6529C6.15096 11.6155 6.12162 11.5862 6.08429 11.5862H5.89496C5.85762 11.5862 5.82829 11.6155 5.82829 11.6529V12.5942H4.64429L5.71096 10.3382C5.72162 10.3169 5.71896 10.2929 5.70829 10.2742C5.69762 10.2555 5.67629 10.2422 5.65229 10.2422H5.44696C5.42029 10.2422 5.39896 10.2582 5.38562 10.2795L4.27096 12.6342C4.27096 12.6342 4.26562 12.6529 4.26562 12.6635V12.8529C4.26562 12.8902 4.29496 12.9195 4.33229 12.9195H5.82829V13.5382C5.82829 13.5755 5.85762 13.6049 5.89496 13.6049H6.08429C6.12162 13.6049 6.15096 13.5755 6.15096 13.5382V12.9195H6.46829C6.50562 12.9195 6.53496 12.8902 6.53496 12.8529V12.6635C6.53496 12.6262 6.50562 12.5969 6.46829 12.5969V12.5942Z" fill="black"/>
<path d="M11.5612 13.562C11.7106 13.6367 11.8786 13.674 12.0599 13.674C12.2679 13.674 12.4626 13.6207 12.6332 13.5167C12.8039 13.4127 12.9426 13.2713 13.0466 13.1007C13.1506 12.9273 13.2012 12.7353 13.2012 12.53C13.2012 12.3247 13.1479 12.1273 13.0439 11.9567C12.9399 11.786 12.8012 11.6473 12.6306 11.5433C12.3052 11.3513 11.8839 11.338 11.5532 11.5087C11.4919 11.5407 11.4332 11.5753 11.3772 11.618L11.4412 10.5727H12.8999C12.9372 10.5727 12.9666 10.5433 12.9666 10.506V10.3167C12.9666 10.2793 12.9372 10.25 12.8999 10.25H11.1986C11.1639 10.25 11.1346 10.2767 11.1319 10.314L11.0332 11.97C11.0332 11.994 11.0439 12.018 11.0652 12.0313L11.2572 12.1433C11.2892 12.162 11.3292 12.1513 11.3479 12.1193C11.4226 11.994 11.5212 11.8927 11.6412 11.818C11.8706 11.6767 12.2066 11.666 12.4626 11.818C12.5852 11.89 12.6866 11.9887 12.7639 12.114C12.8386 12.2367 12.8786 12.3753 12.8786 12.53C12.8786 12.6847 12.8412 12.8153 12.7719 12.938C12.6999 13.0607 12.6012 13.162 12.4786 13.2367C12.2626 13.37 11.9639 13.3887 11.7159 13.274C11.6066 13.2233 11.5106 13.154 11.4306 13.0607C11.3506 12.97 11.2946 12.8607 11.2626 12.7353C11.2572 12.7193 11.2466 12.7033 11.2306 12.6953C11.2146 12.6873 11.1986 12.6847 11.1799 12.6873L11.0012 12.7353C10.9666 12.746 10.9452 12.7807 10.9559 12.818C11.0012 12.9807 11.0759 13.13 11.1799 13.258C11.2839 13.386 11.4146 13.49 11.5639 13.562H11.5612Z" fill="black"/>
<path d="M18.1722 13.5154C18.3456 13.6194 18.5376 13.67 18.7456 13.67C18.9536 13.67 19.1482 13.6167 19.3189 13.5154C19.4896 13.414 19.6282 13.2754 19.7322 13.102C19.8362 12.9287 19.8869 12.7367 19.8869 12.5287C19.8869 12.3207 19.8336 12.1287 19.7322 11.9554C19.6309 11.7847 19.4896 11.6434 19.3189 11.542C19.1456 11.438 18.9536 11.3874 18.7456 11.3874C18.5242 11.3874 18.3242 11.446 18.1456 11.566C18.0656 11.6194 17.9909 11.6807 17.9269 11.7474V11.3207C17.9269 11.174 17.9642 11.038 18.0336 10.9154C18.1056 10.7927 18.2042 10.6914 18.3269 10.614C18.5696 10.4647 18.9109 10.462 19.1589 10.614C19.2842 10.6887 19.3829 10.79 19.4522 10.91C19.4602 10.926 19.4762 10.9367 19.4922 10.942C19.5082 10.9474 19.5269 10.942 19.5429 10.934L19.7056 10.8407C19.7376 10.822 19.7482 10.782 19.7296 10.75C19.6336 10.5794 19.4949 10.4407 19.3216 10.3367C18.9696 10.126 18.5136 10.1287 18.1669 10.3367C17.9962 10.438 17.8576 10.5794 17.7562 10.75C17.6549 10.9234 17.6016 11.1154 17.6016 11.3234V12.534C17.6016 12.742 17.6549 12.9367 17.7562 13.1074C17.8576 13.278 17.9989 13.4194 18.1696 13.5207L18.1722 13.5154ZM18.3322 11.8167C18.4549 11.7447 18.5962 11.7074 18.7456 11.7074C18.8949 11.7074 19.0362 11.7447 19.1589 11.8167C19.2816 11.8887 19.3829 11.99 19.4549 12.1127C19.5269 12.2354 19.5642 12.374 19.5642 12.526C19.5642 12.678 19.5269 12.8167 19.4549 12.9394C19.3829 13.062 19.2816 13.1634 19.1589 13.2354C18.9109 13.3794 18.5776 13.3794 18.3296 13.2354C18.2069 13.1634 18.1056 13.062 18.0336 12.9394C17.9616 12.8167 17.9242 12.6754 17.9242 12.526C17.9242 12.3767 17.9616 12.2354 18.0336 12.1127C18.1056 11.99 18.2069 11.8887 18.3296 11.8167H18.3322Z" fill="black"/>
<path d="M6.42804 16.1562H4.67604C4.63871 16.1562 4.60938 16.1856 4.60938 16.2229V16.4149C4.60938 16.4523 4.63871 16.4816 4.67604 16.4816H6.12671L4.92671 19.4229C4.91871 19.4443 4.92138 19.4683 4.93204 19.4843C4.94538 19.5029 4.96404 19.5136 4.98804 19.5136H5.19071C5.21738 19.5136 5.24138 19.4976 5.25204 19.4709L6.48938 16.4389C6.48938 16.4389 6.49471 16.4229 6.49471 16.4149V16.2229C6.49471 16.1856 6.46538 16.1562 6.42804 16.1562Z" fill="black"/>
<path d="M12.7576 17.7338C12.8429 17.6804 12.9149 17.6111 12.9709 17.5257C13.0722 17.3684 13.1229 17.1924 13.1229 17.0004C13.1229 16.8084 13.0802 16.6484 12.9949 16.5124C12.9096 16.3764 12.7922 16.2724 12.6456 16.2004C12.5016 16.1284 12.3336 16.0938 12.1469 16.0938C11.9602 16.0938 11.7949 16.1284 11.6482 16.2004C11.5016 16.2724 11.3842 16.3764 11.2989 16.5124C11.2136 16.6484 11.1709 16.8111 11.1709 17.0004C11.1709 17.1898 11.2242 17.3684 11.3309 17.5284C11.3869 17.6111 11.4536 17.6777 11.5362 17.7311C11.4269 17.8004 11.3389 17.8831 11.2722 17.9817C11.1576 18.1497 11.1016 18.3524 11.1016 18.5791C11.1016 18.7844 11.1469 18.9657 11.2349 19.1151C11.3229 19.2671 11.4482 19.3844 11.6056 19.4644C11.7629 19.5444 11.9442 19.5871 12.1469 19.5871C12.3496 19.5871 12.5336 19.5471 12.6909 19.4644C12.8482 19.3817 12.9762 19.2644 13.0642 19.1151C13.1522 18.9657 13.1976 18.7844 13.1976 18.5791C13.1976 18.3524 13.1389 18.1497 13.0189 17.9791C12.9522 17.8804 12.8642 17.7977 12.7549 17.7311L12.7576 17.7338ZM12.8642 18.5817C12.8642 18.8057 12.8002 18.9711 12.6696 19.0911C12.5362 19.2111 12.3656 19.2697 12.1469 19.2697C11.9282 19.2697 11.7576 19.2111 11.6242 19.0911C11.4936 18.9738 11.4296 18.8084 11.4296 18.5844C11.4296 18.3604 11.4936 18.1897 11.6216 18.0724C11.7496 17.9577 11.9282 17.8991 12.1469 17.8991C12.3656 17.8991 12.5442 17.9577 12.6722 18.0724C12.8002 18.1871 12.8642 18.3551 12.8642 18.5844V18.5817ZM12.1469 17.5737C11.9522 17.5737 11.7949 17.5231 11.6776 17.4271C11.5629 17.3311 11.5069 17.1924 11.5069 17.0004C11.5069 16.8084 11.5629 16.6698 11.6776 16.5764C11.7949 16.4804 11.9549 16.4324 12.1469 16.4324C12.3389 16.4324 12.4989 16.4804 12.6162 16.5764C12.7309 16.6698 12.7869 16.8111 12.7869 17.0004C12.7869 17.1898 12.7309 17.3311 12.6162 17.4271C12.4989 17.5257 12.3416 17.5737 12.1469 17.5737Z" fill="black"/>
<path d="M19.324 16.2477C18.98 16.0424 18.5214 16.0424 18.1774 16.2477C18.0067 16.3491 17.868 16.4877 17.764 16.6611C17.6627 16.8344 17.6094 17.0264 17.6094 17.2344C17.6094 17.4424 17.6627 17.6371 17.764 17.8077C17.868 17.9784 18.0067 18.1198 18.1774 18.2211C18.3507 18.3251 18.5427 18.3757 18.7507 18.3757C18.972 18.3757 19.1747 18.3171 19.3534 18.1971C19.4334 18.1438 19.5054 18.0824 19.572 18.0158V18.4424C19.572 18.5891 19.5347 18.7251 19.4654 18.8477C19.3934 18.9731 19.2947 19.0744 19.172 19.1491C18.932 19.2958 18.5934 19.3038 18.34 19.1491C18.2147 19.0744 18.116 18.9731 18.0467 18.8531C18.0387 18.8371 18.0227 18.8264 18.0067 18.8211C17.9907 18.8158 17.972 18.8211 17.956 18.8291L17.796 18.9224C17.764 18.9411 17.7534 18.9811 17.772 19.0131C17.8707 19.1837 18.0067 19.3224 18.18 19.4264C18.3534 19.5304 18.548 19.5837 18.756 19.5837C18.964 19.5837 19.1587 19.5304 19.332 19.4291C19.5027 19.3277 19.644 19.1864 19.7427 19.0158C19.844 18.8424 19.8974 18.6504 19.8974 18.4424V17.2317C19.8974 17.0237 19.844 16.8318 19.7427 16.6584C19.6387 16.4851 19.5 16.3464 19.3294 16.2451L19.324 16.2477ZM19.164 17.9438C18.916 18.0904 18.5827 18.0904 18.3347 17.9438C18.212 17.8718 18.1107 17.7704 18.0387 17.6477C17.964 17.5224 17.9294 17.3864 17.9294 17.2344C17.9294 17.0824 17.9667 16.9438 18.0387 16.8211C18.1107 16.6984 18.212 16.5971 18.3347 16.5251C18.4574 16.4531 18.5987 16.4158 18.748 16.4158C18.8974 16.4158 19.0387 16.4531 19.1614 16.5251C19.2867 16.5971 19.3854 16.6984 19.4574 16.8211C19.5294 16.9438 19.5667 17.0851 19.5667 17.2344C19.5667 17.3838 19.532 17.5224 19.4574 17.6477C19.3854 17.7704 19.284 17.8718 19.1614 17.9438H19.164Z" fill="black"/>
</g>
<defs>
<clipPath id="clip0_620_8285">
<rect width="15.624" height="15.3173" fill="white" transform="translate(4.26562 4.26562)"/>
</clipPath>
</defs>
</svg>
